M48
; DRILL file {KiCad 8.0.6} date 2024-12-15T12:07:18-0600
; FORMAT={-:-/ absolute / metric / decimal}
; #@! TF.CreationDate,2024-12-15T12:07:18-06:00
; #@! TF.GenerationSoftware,Kicad,Pcbnew,8.0.6
; #@! TF.FileFunction,Plated,1,2,PTH
FMAT,2
METRIC
; #@! TA.AperFunction,Plated,PTH,ViaDrill
T1C0.300
; #@! TA.AperFunction,Plated,PTH,ComponentDrill
T2C0.300
; #@! TA.AperFunction,Plated,PTH,ComponentDrill
T3C1.000
; #@! TA.AperFunction,Plated,PTH,ComponentDrill
T4C1.520
; #@! TA.AperFunction,Plated,PTH,ComponentDrill
T5C1.780
; #@! TA.AperFunction,Plated,PTH,ComponentDrill
T6C2.700
; #@! TA.AperFunction,Plated,PTH,ComponentDrill
T7C3.500
%
G90
G05
T1
X14.478Y-1.0
X14.478Y-1.889
X17.5Y-50.25
X19.558Y-7.096
X19.558Y-7.985
X20.0Y-50.25
X24.638Y-1.0
X24.638Y-1.889
X32.258Y-1.0
X32.258Y-1.889
X39.878Y-7.096
X39.878Y-7.985
X41.0Y-13.0
X41.0Y-14.75
X41.0Y-16.6
X41.0Y-17.75
X41.0Y-19.25
X41.0Y-20.0
X41.0Y-20.75
X41.0Y-21.5
X41.0Y-22.25
X41.0Y-23.0
X41.0Y-23.75
X41.0Y-24.5
X41.0Y-25.25
X42.5Y-14.75
X42.5Y-16.6
X42.5Y-17.75
X42.5Y-19.25
X43.25Y-9.25
X44.5Y-19.75
X44.75Y-14.25
X44.75Y-15.5
X44.958Y-1.0
X44.958Y-1.889
X46.25Y-9.25
X47.0Y-39.25
X47.0Y-43.5
X47.0Y-44.75
X47.0Y-45.75
X47.0Y-47.25
X47.0Y-48.75
X47.25Y-14.25
X47.25Y-15.0
X48.25Y-51.75
X48.5Y-39.25
X48.5Y-43.5
X48.5Y-44.75
X48.5Y-45.75
X48.874Y-13.923
X49.25Y-16.25
X49.75Y-39.25
X49.75Y-43.5
X49.75Y-44.75
X49.75Y-45.75
X50.038Y-1.0
X50.038Y-1.889
X50.27Y-14.352
X50.5Y-11.45
X51.0Y-21.5
X51.0Y-25.0
X51.0Y-39.25
X51.0Y-40.5
X51.0Y-42.0
X51.0Y-43.5
X51.0Y-44.75
X51.0Y-45.75
X51.25Y-51.75
X51.75Y-21.5
X51.75Y-25.0
X52.5Y-21.5
X52.5Y-25.0
X53.0Y-12.75
X53.0Y-15.1
X53.25Y-21.5
X53.25Y-25.0
X53.35Y-12.15
X53.7Y-12.75
X53.7Y-15.1
X54.0Y-21.5
X54.0Y-22.5
X54.0Y-23.25
X54.0Y-24.0
X54.0Y-25.0
X54.35Y-26.15
X54.35Y-31.75
X55.5Y-44.5
X55.5Y-47.0
X55.6Y-29.1
X55.6Y-29.85
X55.85Y-33.15
X56.0Y-18.0
X56.274Y-14.592
X56.854Y-13.224
X57.09Y-27.45
X57.1Y-24.5
X57.25Y-9.25
X57.25Y-10.0
X57.25Y-10.75
X57.25Y-54.5
X58.0Y-18.0
X58.25Y-52.5
X59.1Y-30.15
X59.1Y-33.15
X60.1Y-31.85
X60.1Y-32.85
X60.6Y-32.35
X60.6Y-33.35
X60.6Y-34.1
X60.6Y-34.85
X61.1Y-31.85
X61.1Y-32.85
X61.35Y-25.85
X61.35Y-29.9
X61.35Y-34.1
X61.35Y-34.85
X61.35Y-35.6
X61.35Y-36.6
X61.35Y-37.6
X61.35Y-38.6
X61.6Y-32.35
X61.6Y-33.35
X62.35Y-27.35
X62.35Y-32.6
X62.35Y-33.6
X62.35Y-34.6
X62.35Y-35.6
X62.35Y-36.6
X62.35Y-37.6
X62.35Y-38.6
X63.0Y-23.25
X63.0Y-24.85
X64.25Y-29.75
X64.25Y-30.5
X64.25Y-31.25
X64.25Y-32.0
X64.25Y-32.75
T2
X57.0Y-31.0
X57.0Y-32.0
X58.0Y-31.0
X58.0Y-32.0
T3
X43.5Y-12.7
X46.0Y-12.7
T4
X11.96Y-53.4
X17.04Y-53.4
X60.9Y-11.71
X60.9Y-16.79
T5
X26.74Y-51.4
X26.74Y-54.8
X40.24Y-51.4
X40.24Y-54.8
T6
X3.5Y-4.5
X3.5Y-53.5
X61.5Y-4.5
X61.5Y-53.5
T7
X4.25Y-13.1
X4.25Y-45.1
X36.25Y-13.1
X36.25Y-45.1
M30
