%TF.GenerationSoftware,KiCad,Pcbnew,8.0.6*%
%TF.CreationDate,2024-12-15T12:06:58-06:00*%
%TF.ProjectId,ElectriPi,456c6563-7472-4695-9069-2e6b69636164,rev?*%
%TF.SameCoordinates,PX514cfd0PY31d4590*%
%TF.FileFunction,Legend,Bot*%
%TF.FilePolarity,Positive*%
%FSLAX46Y46*%
G04 Gerber Fmt 4.6, Leading zero omitted, Abs format (unit mm)*
G04 Created by KiCad (PCBNEW 8.0.6) date 2024-12-15 12:06:58*
%MOMM*%
%LPD*%
G01*
G04 APERTURE LIST*
%ADD10C,0.150000*%
%ADD11C,0.120000*%
%ADD12C,0.000000*%
G04 APERTURE END LIST*
D10*
X59123962Y-40804761D02*
X59123962Y-40471428D01*
X58600152Y-40328571D02*
X58600152Y-40804761D01*
X58600152Y-40804761D02*
X59600152Y-40804761D01*
X59600152Y-40804761D02*
X59600152Y-40328571D01*
X58600152Y-39757142D02*
X58647772Y-39852380D01*
X58647772Y-39852380D02*
X58743010Y-39899999D01*
X58743010Y-39899999D02*
X59600152Y-39899999D01*
X58647772Y-38995237D02*
X58600152Y-39090475D01*
X58600152Y-39090475D02*
X58600152Y-39280951D01*
X58600152Y-39280951D02*
X58647772Y-39376189D01*
X58647772Y-39376189D02*
X58743010Y-39423808D01*
X58743010Y-39423808D02*
X59123962Y-39423808D01*
X59123962Y-39423808D02*
X59219200Y-39376189D01*
X59219200Y-39376189D02*
X59266819Y-39280951D01*
X59266819Y-39280951D02*
X59266819Y-39090475D01*
X59266819Y-39090475D02*
X59219200Y-38995237D01*
X59219200Y-38995237D02*
X59123962Y-38947618D01*
X59123962Y-38947618D02*
X59028724Y-38947618D01*
X59028724Y-38947618D02*
X58933486Y-39423808D01*
X58647772Y-38090475D02*
X58600152Y-38185713D01*
X58600152Y-38185713D02*
X58600152Y-38376189D01*
X58600152Y-38376189D02*
X58647772Y-38471427D01*
X58647772Y-38471427D02*
X58695391Y-38519046D01*
X58695391Y-38519046D02*
X58790629Y-38566665D01*
X58790629Y-38566665D02*
X59076343Y-38566665D01*
X59076343Y-38566665D02*
X59171581Y-38519046D01*
X59171581Y-38519046D02*
X59219200Y-38471427D01*
X59219200Y-38471427D02*
X59266819Y-38376189D01*
X59266819Y-38376189D02*
X59266819Y-38185713D01*
X59266819Y-38185713D02*
X59219200Y-38090475D01*
X59266819Y-37804760D02*
X59266819Y-37423808D01*
X59600152Y-37661903D02*
X58743010Y-37661903D01*
X58743010Y-37661903D02*
X58647772Y-37614284D01*
X58647772Y-37614284D02*
X58600152Y-37519046D01*
X58600152Y-37519046D02*
X58600152Y-37423808D01*
X58600152Y-37090474D02*
X59266819Y-37090474D01*
X59076343Y-37090474D02*
X59171581Y-37042855D01*
X59171581Y-37042855D02*
X59219200Y-36995236D01*
X59219200Y-36995236D02*
X59266819Y-36899998D01*
X59266819Y-36899998D02*
X59266819Y-36804760D01*
X58600152Y-36471426D02*
X59266819Y-36471426D01*
X59600152Y-36471426D02*
X59552533Y-36519045D01*
X59552533Y-36519045D02*
X59504914Y-36471426D01*
X59504914Y-36471426D02*
X59552533Y-36423807D01*
X59552533Y-36423807D02*
X59600152Y-36471426D01*
X59600152Y-36471426D02*
X59504914Y-36471426D01*
X58600152Y-35995236D02*
X59600152Y-35995236D01*
X59600152Y-35995236D02*
X59600152Y-35614284D01*
X59600152Y-35614284D02*
X59552533Y-35519046D01*
X59552533Y-35519046D02*
X59504914Y-35471427D01*
X59504914Y-35471427D02*
X59409676Y-35423808D01*
X59409676Y-35423808D02*
X59266819Y-35423808D01*
X59266819Y-35423808D02*
X59171581Y-35471427D01*
X59171581Y-35471427D02*
X59123962Y-35519046D01*
X59123962Y-35519046D02*
X59076343Y-35614284D01*
X59076343Y-35614284D02*
X59076343Y-35995236D01*
X58600152Y-34995236D02*
X59266819Y-34995236D01*
X59600152Y-34995236D02*
X59552533Y-35042855D01*
X59552533Y-35042855D02*
X59504914Y-34995236D01*
X59504914Y-34995236D02*
X59552533Y-34947617D01*
X59552533Y-34947617D02*
X59600152Y-34995236D01*
X59600152Y-34995236D02*
X59504914Y-34995236D01*
X56990208Y-42566667D02*
X57990208Y-42566667D01*
X57609256Y-42566667D02*
X57656875Y-42471429D01*
X57656875Y-42471429D02*
X57656875Y-42280953D01*
X57656875Y-42280953D02*
X57609256Y-42185715D01*
X57609256Y-42185715D02*
X57561637Y-42138096D01*
X57561637Y-42138096D02*
X57466399Y-42090477D01*
X57466399Y-42090477D02*
X57180685Y-42090477D01*
X57180685Y-42090477D02*
X57085447Y-42138096D01*
X57085447Y-42138096D02*
X57037828Y-42185715D01*
X57037828Y-42185715D02*
X56990208Y-42280953D01*
X56990208Y-42280953D02*
X56990208Y-42471429D01*
X56990208Y-42471429D02*
X57037828Y-42566667D01*
X57656875Y-41757143D02*
X56990208Y-41519048D01*
X57656875Y-41280953D02*
X56990208Y-41519048D01*
X56990208Y-41519048D02*
X56752113Y-41614286D01*
X56752113Y-41614286D02*
X56704494Y-41661905D01*
X56704494Y-41661905D02*
X56656875Y-41757143D01*
X57990208Y-40280952D02*
X56990208Y-39947619D01*
X56990208Y-39947619D02*
X57990208Y-39614286D01*
X57037828Y-38900000D02*
X56990208Y-38995238D01*
X56990208Y-38995238D02*
X56990208Y-39185714D01*
X56990208Y-39185714D02*
X57037828Y-39280952D01*
X57037828Y-39280952D02*
X57133066Y-39328571D01*
X57133066Y-39328571D02*
X57514018Y-39328571D01*
X57514018Y-39328571D02*
X57609256Y-39280952D01*
X57609256Y-39280952D02*
X57656875Y-39185714D01*
X57656875Y-39185714D02*
X57656875Y-38995238D01*
X57656875Y-38995238D02*
X57609256Y-38900000D01*
X57609256Y-38900000D02*
X57514018Y-38852381D01*
X57514018Y-38852381D02*
X57418780Y-38852381D01*
X57418780Y-38852381D02*
X57323542Y-39328571D01*
X57037828Y-37995238D02*
X56990208Y-38090476D01*
X56990208Y-38090476D02*
X56990208Y-38280952D01*
X56990208Y-38280952D02*
X57037828Y-38376190D01*
X57037828Y-38376190D02*
X57085447Y-38423809D01*
X57085447Y-38423809D02*
X57180685Y-38471428D01*
X57180685Y-38471428D02*
X57466399Y-38471428D01*
X57466399Y-38471428D02*
X57561637Y-38423809D01*
X57561637Y-38423809D02*
X57609256Y-38376190D01*
X57609256Y-38376190D02*
X57656875Y-38280952D01*
X57656875Y-38280952D02*
X57656875Y-38090476D01*
X57656875Y-38090476D02*
X57609256Y-37995238D01*
X57656875Y-37709523D02*
X57656875Y-37328571D01*
X57990208Y-37566666D02*
X57133066Y-37566666D01*
X57133066Y-37566666D02*
X57037828Y-37519047D01*
X57037828Y-37519047D02*
X56990208Y-37423809D01*
X56990208Y-37423809D02*
X56990208Y-37328571D01*
X56990208Y-36852380D02*
X57037828Y-36947618D01*
X57037828Y-36947618D02*
X57085447Y-36995237D01*
X57085447Y-36995237D02*
X57180685Y-37042856D01*
X57180685Y-37042856D02*
X57466399Y-37042856D01*
X57466399Y-37042856D02*
X57561637Y-36995237D01*
X57561637Y-36995237D02*
X57609256Y-36947618D01*
X57609256Y-36947618D02*
X57656875Y-36852380D01*
X57656875Y-36852380D02*
X57656875Y-36709523D01*
X57656875Y-36709523D02*
X57609256Y-36614285D01*
X57609256Y-36614285D02*
X57561637Y-36566666D01*
X57561637Y-36566666D02*
X57466399Y-36519047D01*
X57466399Y-36519047D02*
X57180685Y-36519047D01*
X57180685Y-36519047D02*
X57085447Y-36566666D01*
X57085447Y-36566666D02*
X57037828Y-36614285D01*
X57037828Y-36614285D02*
X56990208Y-36709523D01*
X56990208Y-36709523D02*
X56990208Y-36852380D01*
X56990208Y-36090475D02*
X57656875Y-36090475D01*
X57466399Y-36090475D02*
X57561637Y-36042856D01*
X57561637Y-36042856D02*
X57609256Y-35995237D01*
X57609256Y-35995237D02*
X57656875Y-35899999D01*
X57656875Y-35899999D02*
X57656875Y-35804761D01*
X57990208Y-34804760D02*
X57990208Y-34185713D01*
X57990208Y-34185713D02*
X57609256Y-34519046D01*
X57609256Y-34519046D02*
X57609256Y-34376189D01*
X57609256Y-34376189D02*
X57561637Y-34280951D01*
X57561637Y-34280951D02*
X57514018Y-34233332D01*
X57514018Y-34233332D02*
X57418780Y-34185713D01*
X57418780Y-34185713D02*
X57180685Y-34185713D01*
X57180685Y-34185713D02*
X57085447Y-34233332D01*
X57085447Y-34233332D02*
X57037828Y-34280951D01*
X57037828Y-34280951D02*
X56990208Y-34376189D01*
X56990208Y-34376189D02*
X56990208Y-34661903D01*
X56990208Y-34661903D02*
X57037828Y-34757141D01*
X57037828Y-34757141D02*
X57085447Y-34804760D01*
X56990208Y-33757141D02*
X57990208Y-33757141D01*
X57990208Y-33757141D02*
X57990208Y-33519046D01*
X57990208Y-33519046D02*
X57942589Y-33376189D01*
X57942589Y-33376189D02*
X57847351Y-33280951D01*
X57847351Y-33280951D02*
X57752113Y-33233332D01*
X57752113Y-33233332D02*
X57561637Y-33185713D01*
X57561637Y-33185713D02*
X57418780Y-33185713D01*
X57418780Y-33185713D02*
X57228304Y-33233332D01*
X57228304Y-33233332D02*
X57133066Y-33280951D01*
X57133066Y-33280951D02*
X57037828Y-33376189D01*
X57037828Y-33376189D02*
X56990208Y-33519046D01*
X56990208Y-33519046D02*
X56990208Y-33757141D01*
X63755533Y-10888095D02*
X63755533Y-12411905D01*
X43295180Y-46773808D02*
X42295180Y-46440475D01*
X42295180Y-46440475D02*
X43295180Y-46107142D01*
X43295180Y-45869046D02*
X43295180Y-45249999D01*
X43295180Y-45249999D02*
X42914228Y-45583332D01*
X42914228Y-45583332D02*
X42914228Y-45440475D01*
X42914228Y-45440475D02*
X42866609Y-45345237D01*
X42866609Y-45345237D02*
X42818990Y-45297618D01*
X42818990Y-45297618D02*
X42723752Y-45249999D01*
X42723752Y-45249999D02*
X42485657Y-45249999D01*
X42485657Y-45249999D02*
X42390419Y-45297618D01*
X42390419Y-45297618D02*
X42342800Y-45345237D01*
X42342800Y-45345237D02*
X42295180Y-45440475D01*
X42295180Y-45440475D02*
X42295180Y-45726189D01*
X42295180Y-45726189D02*
X42342800Y-45821427D01*
X42342800Y-45821427D02*
X42390419Y-45869046D01*
X42390419Y-44821427D02*
X42342800Y-44773808D01*
X42342800Y-44773808D02*
X42295180Y-44821427D01*
X42295180Y-44821427D02*
X42342800Y-44869046D01*
X42342800Y-44869046D02*
X42390419Y-44821427D01*
X42390419Y-44821427D02*
X42295180Y-44821427D01*
X42295180Y-43821428D02*
X42295180Y-44392856D01*
X42295180Y-44107142D02*
X43295180Y-44107142D01*
X43295180Y-44107142D02*
X43152323Y-44202380D01*
X43152323Y-44202380D02*
X43057085Y-44297618D01*
X43057085Y-44297618D02*
X43009466Y-44392856D01*
X46761904Y-14755533D02*
X45238095Y-14755533D01*
X45999999Y-15517438D02*
X45999999Y-13993628D01*
X46045180Y-17690476D02*
X46045180Y-18166666D01*
X46045180Y-18166666D02*
X45568990Y-18214285D01*
X45568990Y-18214285D02*
X45616609Y-18166666D01*
X45616609Y-18166666D02*
X45664228Y-18071428D01*
X45664228Y-18071428D02*
X45664228Y-17833333D01*
X45664228Y-17833333D02*
X45616609Y-17738095D01*
X45616609Y-17738095D02*
X45568990Y-17690476D01*
X45568990Y-17690476D02*
X45473752Y-17642857D01*
X45473752Y-17642857D02*
X45235657Y-17642857D01*
X45235657Y-17642857D02*
X45140419Y-17690476D01*
X45140419Y-17690476D02*
X45092800Y-17738095D01*
X45092800Y-17738095D02*
X45045180Y-17833333D01*
X45045180Y-17833333D02*
X45045180Y-18071428D01*
X45045180Y-18071428D02*
X45092800Y-18166666D01*
X45092800Y-18166666D02*
X45140419Y-18214285D01*
X46045180Y-17357142D02*
X45045180Y-17023809D01*
X45045180Y-17023809D02*
X46045180Y-16690476D01*
X12801904Y-55955533D02*
X11278095Y-55955533D01*
X12039999Y-56717438D02*
X12039999Y-55193628D01*
X17801904Y-55655533D02*
X16278095Y-55655533D01*
X63755533Y-15888095D02*
X63755533Y-17411905D01*
X64517438Y-16650000D02*
X62993628Y-16650000D01*
X49045180Y-18333332D02*
X48045180Y-17999999D01*
X48045180Y-17999999D02*
X49045180Y-17666666D01*
X48140419Y-16761904D02*
X48092800Y-16809523D01*
X48092800Y-16809523D02*
X48045180Y-16952380D01*
X48045180Y-16952380D02*
X48045180Y-17047618D01*
X48045180Y-17047618D02*
X48092800Y-17190475D01*
X48092800Y-17190475D02*
X48188038Y-17285713D01*
X48188038Y-17285713D02*
X48283276Y-17333332D01*
X48283276Y-17333332D02*
X48473752Y-17380951D01*
X48473752Y-17380951D02*
X48616609Y-17380951D01*
X48616609Y-17380951D02*
X48807085Y-17333332D01*
X48807085Y-17333332D02*
X48902323Y-17285713D01*
X48902323Y-17285713D02*
X48997561Y-17190475D01*
X48997561Y-17190475D02*
X49045180Y-17047618D01*
X49045180Y-17047618D02*
X49045180Y-16952380D01*
X49045180Y-16952380D02*
X48997561Y-16809523D01*
X48997561Y-16809523D02*
X48949942Y-16761904D01*
X48140419Y-15761904D02*
X48092800Y-15809523D01*
X48092800Y-15809523D02*
X48045180Y-15952380D01*
X48045180Y-15952380D02*
X48045180Y-16047618D01*
X48045180Y-16047618D02*
X48092800Y-16190475D01*
X48092800Y-16190475D02*
X48188038Y-16285713D01*
X48188038Y-16285713D02*
X48283276Y-16333332D01*
X48283276Y-16333332D02*
X48473752Y-16380951D01*
X48473752Y-16380951D02*
X48616609Y-16380951D01*
X48616609Y-16380951D02*
X48807085Y-16333332D01*
X48807085Y-16333332D02*
X48902323Y-16285713D01*
X48902323Y-16285713D02*
X48997561Y-16190475D01*
X48997561Y-16190475D02*
X49045180Y-16047618D01*
X49045180Y-16047618D02*
X49045180Y-15952380D01*
X49045180Y-15952380D02*
X48997561Y-15809523D01*
X48997561Y-15809523D02*
X48949942Y-15761904D01*
X44261904Y-14755533D02*
X42738095Y-14755533D01*
X44100152Y-33083333D02*
X45100152Y-33083333D01*
X45100152Y-33083333D02*
X45100152Y-32845238D01*
X45100152Y-32845238D02*
X45052533Y-32702381D01*
X45052533Y-32702381D02*
X44957295Y-32607143D01*
X44957295Y-32607143D02*
X44862057Y-32559524D01*
X44862057Y-32559524D02*
X44671581Y-32511905D01*
X44671581Y-32511905D02*
X44528724Y-32511905D01*
X44528724Y-32511905D02*
X44338248Y-32559524D01*
X44338248Y-32559524D02*
X44243010Y-32607143D01*
X44243010Y-32607143D02*
X44147772Y-32702381D01*
X44147772Y-32702381D02*
X44100152Y-32845238D01*
X44100152Y-32845238D02*
X44100152Y-33083333D01*
X44147772Y-31702381D02*
X44100152Y-31797619D01*
X44100152Y-31797619D02*
X44100152Y-31988095D01*
X44100152Y-31988095D02*
X44147772Y-32083333D01*
X44147772Y-32083333D02*
X44243010Y-32130952D01*
X44243010Y-32130952D02*
X44623962Y-32130952D01*
X44623962Y-32130952D02*
X44719200Y-32083333D01*
X44719200Y-32083333D02*
X44766819Y-31988095D01*
X44766819Y-31988095D02*
X44766819Y-31797619D01*
X44766819Y-31797619D02*
X44719200Y-31702381D01*
X44719200Y-31702381D02*
X44623962Y-31654762D01*
X44623962Y-31654762D02*
X44528724Y-31654762D01*
X44528724Y-31654762D02*
X44433486Y-32130952D01*
X44147772Y-31273809D02*
X44100152Y-31178571D01*
X44100152Y-31178571D02*
X44100152Y-30988095D01*
X44100152Y-30988095D02*
X44147772Y-30892857D01*
X44147772Y-30892857D02*
X44243010Y-30845238D01*
X44243010Y-30845238D02*
X44290629Y-30845238D01*
X44290629Y-30845238D02*
X44385867Y-30892857D01*
X44385867Y-30892857D02*
X44433486Y-30988095D01*
X44433486Y-30988095D02*
X44433486Y-31130952D01*
X44433486Y-31130952D02*
X44481105Y-31226190D01*
X44481105Y-31226190D02*
X44576343Y-31273809D01*
X44576343Y-31273809D02*
X44623962Y-31273809D01*
X44623962Y-31273809D02*
X44719200Y-31226190D01*
X44719200Y-31226190D02*
X44766819Y-31130952D01*
X44766819Y-31130952D02*
X44766819Y-30988095D01*
X44766819Y-30988095D02*
X44719200Y-30892857D01*
X44100152Y-30416666D02*
X44766819Y-30416666D01*
X45100152Y-30416666D02*
X45052533Y-30464285D01*
X45052533Y-30464285D02*
X45004914Y-30416666D01*
X45004914Y-30416666D02*
X45052533Y-30369047D01*
X45052533Y-30369047D02*
X45100152Y-30416666D01*
X45100152Y-30416666D02*
X45004914Y-30416666D01*
X44766819Y-29511905D02*
X43957295Y-29511905D01*
X43957295Y-29511905D02*
X43862057Y-29559524D01*
X43862057Y-29559524D02*
X43814438Y-29607143D01*
X43814438Y-29607143D02*
X43766819Y-29702381D01*
X43766819Y-29702381D02*
X43766819Y-29845238D01*
X43766819Y-29845238D02*
X43814438Y-29940476D01*
X44147772Y-29511905D02*
X44100152Y-29607143D01*
X44100152Y-29607143D02*
X44100152Y-29797619D01*
X44100152Y-29797619D02*
X44147772Y-29892857D01*
X44147772Y-29892857D02*
X44195391Y-29940476D01*
X44195391Y-29940476D02*
X44290629Y-29988095D01*
X44290629Y-29988095D02*
X44576343Y-29988095D01*
X44576343Y-29988095D02*
X44671581Y-29940476D01*
X44671581Y-29940476D02*
X44719200Y-29892857D01*
X44719200Y-29892857D02*
X44766819Y-29797619D01*
X44766819Y-29797619D02*
X44766819Y-29607143D01*
X44766819Y-29607143D02*
X44719200Y-29511905D01*
X44766819Y-29035714D02*
X44100152Y-29035714D01*
X44671581Y-29035714D02*
X44719200Y-28988095D01*
X44719200Y-28988095D02*
X44766819Y-28892857D01*
X44766819Y-28892857D02*
X44766819Y-28750000D01*
X44766819Y-28750000D02*
X44719200Y-28654762D01*
X44719200Y-28654762D02*
X44623962Y-28607143D01*
X44623962Y-28607143D02*
X44100152Y-28607143D01*
X44147772Y-27750000D02*
X44100152Y-27845238D01*
X44100152Y-27845238D02*
X44100152Y-28035714D01*
X44100152Y-28035714D02*
X44147772Y-28130952D01*
X44147772Y-28130952D02*
X44243010Y-28178571D01*
X44243010Y-28178571D02*
X44623962Y-28178571D01*
X44623962Y-28178571D02*
X44719200Y-28130952D01*
X44719200Y-28130952D02*
X44766819Y-28035714D01*
X44766819Y-28035714D02*
X44766819Y-27845238D01*
X44766819Y-27845238D02*
X44719200Y-27750000D01*
X44719200Y-27750000D02*
X44623962Y-27702381D01*
X44623962Y-27702381D02*
X44528724Y-27702381D01*
X44528724Y-27702381D02*
X44433486Y-28178571D01*
X44100152Y-26845238D02*
X45100152Y-26845238D01*
X44147772Y-26845238D02*
X44100152Y-26940476D01*
X44100152Y-26940476D02*
X44100152Y-27130952D01*
X44100152Y-27130952D02*
X44147772Y-27226190D01*
X44147772Y-27226190D02*
X44195391Y-27273809D01*
X44195391Y-27273809D02*
X44290629Y-27321428D01*
X44290629Y-27321428D02*
X44576343Y-27321428D01*
X44576343Y-27321428D02*
X44671581Y-27273809D01*
X44671581Y-27273809D02*
X44719200Y-27226190D01*
X44719200Y-27226190D02*
X44766819Y-27130952D01*
X44766819Y-27130952D02*
X44766819Y-26940476D01*
X44766819Y-26940476D02*
X44719200Y-26845238D01*
X44100152Y-25607142D02*
X45100152Y-25607142D01*
X44719200Y-25607142D02*
X44766819Y-25511904D01*
X44766819Y-25511904D02*
X44766819Y-25321428D01*
X44766819Y-25321428D02*
X44719200Y-25226190D01*
X44719200Y-25226190D02*
X44671581Y-25178571D01*
X44671581Y-25178571D02*
X44576343Y-25130952D01*
X44576343Y-25130952D02*
X44290629Y-25130952D01*
X44290629Y-25130952D02*
X44195391Y-25178571D01*
X44195391Y-25178571D02*
X44147772Y-25226190D01*
X44147772Y-25226190D02*
X44100152Y-25321428D01*
X44100152Y-25321428D02*
X44100152Y-25511904D01*
X44100152Y-25511904D02*
X44147772Y-25607142D01*
X44766819Y-24797618D02*
X44100152Y-24559523D01*
X44766819Y-24321428D02*
X44100152Y-24559523D01*
X44100152Y-24559523D02*
X43862057Y-24654761D01*
X43862057Y-24654761D02*
X43814438Y-24702380D01*
X43814438Y-24702380D02*
X43766819Y-24797618D01*
X42537828Y-35083333D02*
X42490208Y-34940476D01*
X42490208Y-34940476D02*
X42490208Y-34702381D01*
X42490208Y-34702381D02*
X42537828Y-34607143D01*
X42537828Y-34607143D02*
X42585447Y-34559524D01*
X42585447Y-34559524D02*
X42680685Y-34511905D01*
X42680685Y-34511905D02*
X42775923Y-34511905D01*
X42775923Y-34511905D02*
X42871161Y-34559524D01*
X42871161Y-34559524D02*
X42918780Y-34607143D01*
X42918780Y-34607143D02*
X42966399Y-34702381D01*
X42966399Y-34702381D02*
X43014018Y-34892857D01*
X43014018Y-34892857D02*
X43061637Y-34988095D01*
X43061637Y-34988095D02*
X43109256Y-35035714D01*
X43109256Y-35035714D02*
X43204494Y-35083333D01*
X43204494Y-35083333D02*
X43299732Y-35083333D01*
X43299732Y-35083333D02*
X43394970Y-35035714D01*
X43394970Y-35035714D02*
X43442589Y-34988095D01*
X43442589Y-34988095D02*
X43490208Y-34892857D01*
X43490208Y-34892857D02*
X43490208Y-34654762D01*
X43490208Y-34654762D02*
X43442589Y-34511905D01*
X42490208Y-34083333D02*
X43156875Y-34083333D01*
X42966399Y-34083333D02*
X43061637Y-34035714D01*
X43061637Y-34035714D02*
X43109256Y-33988095D01*
X43109256Y-33988095D02*
X43156875Y-33892857D01*
X43156875Y-33892857D02*
X43156875Y-33797619D01*
X42537828Y-33083333D02*
X42490208Y-33178571D01*
X42490208Y-33178571D02*
X42490208Y-33369047D01*
X42490208Y-33369047D02*
X42537828Y-33464285D01*
X42537828Y-33464285D02*
X42633066Y-33511904D01*
X42633066Y-33511904D02*
X43014018Y-33511904D01*
X43014018Y-33511904D02*
X43109256Y-33464285D01*
X43109256Y-33464285D02*
X43156875Y-33369047D01*
X43156875Y-33369047D02*
X43156875Y-33178571D01*
X43156875Y-33178571D02*
X43109256Y-33083333D01*
X43109256Y-33083333D02*
X43014018Y-33035714D01*
X43014018Y-33035714D02*
X42918780Y-33035714D01*
X42918780Y-33035714D02*
X42823542Y-33511904D01*
X42537828Y-32226190D02*
X42490208Y-32321428D01*
X42490208Y-32321428D02*
X42490208Y-32511904D01*
X42490208Y-32511904D02*
X42537828Y-32607142D01*
X42537828Y-32607142D02*
X42633066Y-32654761D01*
X42633066Y-32654761D02*
X43014018Y-32654761D01*
X43014018Y-32654761D02*
X43109256Y-32607142D01*
X43109256Y-32607142D02*
X43156875Y-32511904D01*
X43156875Y-32511904D02*
X43156875Y-32321428D01*
X43156875Y-32321428D02*
X43109256Y-32226190D01*
X43109256Y-32226190D02*
X43014018Y-32178571D01*
X43014018Y-32178571D02*
X42918780Y-32178571D01*
X42918780Y-32178571D02*
X42823542Y-32654761D01*
X43156875Y-31749999D02*
X42490208Y-31749999D01*
X43061637Y-31749999D02*
X43109256Y-31702380D01*
X43109256Y-31702380D02*
X43156875Y-31607142D01*
X43156875Y-31607142D02*
X43156875Y-31464285D01*
X43156875Y-31464285D02*
X43109256Y-31369047D01*
X43109256Y-31369047D02*
X43014018Y-31321428D01*
X43014018Y-31321428D02*
X42490208Y-31321428D01*
X42490208Y-30845237D02*
X43156875Y-30845237D01*
X43490208Y-30845237D02*
X43442589Y-30892856D01*
X43442589Y-30892856D02*
X43394970Y-30845237D01*
X43394970Y-30845237D02*
X43442589Y-30797618D01*
X43442589Y-30797618D02*
X43490208Y-30845237D01*
X43490208Y-30845237D02*
X43394970Y-30845237D01*
X43156875Y-30464285D02*
X42490208Y-30226190D01*
X42490208Y-30226190D02*
X43156875Y-29988095D01*
X42490208Y-29178571D02*
X43014018Y-29178571D01*
X43014018Y-29178571D02*
X43109256Y-29226190D01*
X43109256Y-29226190D02*
X43156875Y-29321428D01*
X43156875Y-29321428D02*
X43156875Y-29511904D01*
X43156875Y-29511904D02*
X43109256Y-29607142D01*
X42537828Y-29178571D02*
X42490208Y-29273809D01*
X42490208Y-29273809D02*
X42490208Y-29511904D01*
X42490208Y-29511904D02*
X42537828Y-29607142D01*
X42537828Y-29607142D02*
X42633066Y-29654761D01*
X42633066Y-29654761D02*
X42728304Y-29654761D01*
X42728304Y-29654761D02*
X42823542Y-29607142D01*
X42823542Y-29607142D02*
X42871161Y-29511904D01*
X42871161Y-29511904D02*
X42871161Y-29273809D01*
X42871161Y-29273809D02*
X42918780Y-29178571D01*
X42537828Y-28749999D02*
X42490208Y-28654761D01*
X42490208Y-28654761D02*
X42490208Y-28464285D01*
X42490208Y-28464285D02*
X42537828Y-28369047D01*
X42537828Y-28369047D02*
X42633066Y-28321428D01*
X42633066Y-28321428D02*
X42680685Y-28321428D01*
X42680685Y-28321428D02*
X42775923Y-28369047D01*
X42775923Y-28369047D02*
X42823542Y-28464285D01*
X42823542Y-28464285D02*
X42823542Y-28607142D01*
X42823542Y-28607142D02*
X42871161Y-28702380D01*
X42871161Y-28702380D02*
X42966399Y-28749999D01*
X42966399Y-28749999D02*
X43014018Y-28749999D01*
X43014018Y-28749999D02*
X43109256Y-28702380D01*
X43109256Y-28702380D02*
X43156875Y-28607142D01*
X43156875Y-28607142D02*
X43156875Y-28464285D01*
X43156875Y-28464285D02*
X43109256Y-28369047D01*
X43014018Y-27130951D02*
X43014018Y-26797618D01*
X42490208Y-26654761D02*
X42490208Y-27130951D01*
X42490208Y-27130951D02*
X43490208Y-27130951D01*
X43490208Y-27130951D02*
X43490208Y-26654761D01*
X42490208Y-25797618D02*
X43014018Y-25797618D01*
X43014018Y-25797618D02*
X43109256Y-25845237D01*
X43109256Y-25845237D02*
X43156875Y-25940475D01*
X43156875Y-25940475D02*
X43156875Y-26130951D01*
X43156875Y-26130951D02*
X43109256Y-26226189D01*
X42537828Y-25797618D02*
X42490208Y-25892856D01*
X42490208Y-25892856D02*
X42490208Y-26130951D01*
X42490208Y-26130951D02*
X42537828Y-26226189D01*
X42537828Y-26226189D02*
X42633066Y-26273808D01*
X42633066Y-26273808D02*
X42728304Y-26273808D01*
X42728304Y-26273808D02*
X42823542Y-26226189D01*
X42823542Y-26226189D02*
X42871161Y-26130951D01*
X42871161Y-26130951D02*
X42871161Y-25892856D01*
X42871161Y-25892856D02*
X42918780Y-25797618D01*
X42490208Y-24892856D02*
X43490208Y-24892856D01*
X42537828Y-24892856D02*
X42490208Y-24988094D01*
X42490208Y-24988094D02*
X42490208Y-25178570D01*
X42490208Y-25178570D02*
X42537828Y-25273808D01*
X42537828Y-25273808D02*
X42585447Y-25321427D01*
X42585447Y-25321427D02*
X42680685Y-25369046D01*
X42680685Y-25369046D02*
X42966399Y-25369046D01*
X42966399Y-25369046D02*
X43061637Y-25321427D01*
X43061637Y-25321427D02*
X43109256Y-25273808D01*
X43109256Y-25273808D02*
X43156875Y-25178570D01*
X43156875Y-25178570D02*
X43156875Y-24988094D01*
X43156875Y-24988094D02*
X43109256Y-24892856D01*
X42490208Y-23988094D02*
X43014018Y-23988094D01*
X43014018Y-23988094D02*
X43109256Y-24035713D01*
X43109256Y-24035713D02*
X43156875Y-24130951D01*
X43156875Y-24130951D02*
X43156875Y-24321427D01*
X43156875Y-24321427D02*
X43109256Y-24416665D01*
X42537828Y-23988094D02*
X42490208Y-24083332D01*
X42490208Y-24083332D02*
X42490208Y-24321427D01*
X42490208Y-24321427D02*
X42537828Y-24416665D01*
X42537828Y-24416665D02*
X42633066Y-24464284D01*
X42633066Y-24464284D02*
X42728304Y-24464284D01*
X42728304Y-24464284D02*
X42823542Y-24416665D01*
X42823542Y-24416665D02*
X42871161Y-24321427D01*
X42871161Y-24321427D02*
X42871161Y-24083332D01*
X42871161Y-24083332D02*
X42918780Y-23988094D01*
X42490208Y-23511903D02*
X43156875Y-23511903D01*
X42966399Y-23511903D02*
X43061637Y-23464284D01*
X43061637Y-23464284D02*
X43109256Y-23416665D01*
X43109256Y-23416665D02*
X43156875Y-23321427D01*
X43156875Y-23321427D02*
X43156875Y-23226189D01*
X42490208Y-22464284D02*
X43014018Y-22464284D01*
X43014018Y-22464284D02*
X43109256Y-22511903D01*
X43109256Y-22511903D02*
X43156875Y-22607141D01*
X43156875Y-22607141D02*
X43156875Y-22797617D01*
X43156875Y-22797617D02*
X43109256Y-22892855D01*
X42537828Y-22464284D02*
X42490208Y-22559522D01*
X42490208Y-22559522D02*
X42490208Y-22797617D01*
X42490208Y-22797617D02*
X42537828Y-22892855D01*
X42537828Y-22892855D02*
X42633066Y-22940474D01*
X42633066Y-22940474D02*
X42728304Y-22940474D01*
X42728304Y-22940474D02*
X42823542Y-22892855D01*
X42823542Y-22892855D02*
X42871161Y-22797617D01*
X42871161Y-22797617D02*
X42871161Y-22559522D01*
X42871161Y-22559522D02*
X42918780Y-22464284D01*
D11*
%TO.C,TP5*%
X45700000Y-9250000D02*
G75*
G02*
X43800000Y-9250000I-950000J0D01*
G01*
X43800000Y-9250000D02*
G75*
G02*
X45700000Y-9250000I950000J0D01*
G01*
%TO.C,JP1*%
X44950000Y-19450000D02*
X44950000Y-20050000D01*
X45600000Y-20750000D02*
X48400000Y-20750000D01*
X48200000Y-20950000D02*
X47900000Y-21250000D01*
X48200000Y-20950000D02*
X48500000Y-21250000D01*
X48400000Y-18750000D02*
X45600000Y-18750000D01*
X48500000Y-21250000D02*
X47900000Y-21250000D01*
X49050000Y-20050000D02*
X49050000Y-19450000D01*
X44950000Y-19450000D02*
G75*
G02*
X45650000Y-18750000I700000J0D01*
G01*
X45650000Y-20750000D02*
G75*
G02*
X44950000Y-20050000I0J700000D01*
G01*
X48350000Y-18750000D02*
G75*
G02*
X49050000Y-19450000I1J-699999D01*
G01*
X49050000Y-20050000D02*
G75*
G02*
X48350000Y-20750000I-699999J-1D01*
G01*
%TO.C,TP4*%
X56450000Y-45750000D02*
G75*
G02*
X54550000Y-45750000I-950000J0D01*
G01*
X54550000Y-45750000D02*
G75*
G02*
X56450000Y-45750000I950000J0D01*
G01*
%TO.C,TP1*%
X57950000Y-18000000D02*
G75*
G02*
X56050000Y-18000000I-950000J0D01*
G01*
X56050000Y-18000000D02*
G75*
G02*
X57950000Y-18000000I950000J0D01*
G01*
D12*
%TO.C,G\u002A\u002A\u002A*%
G36*
X46405673Y-21687500D02*
G01*
X46093096Y-21687500D01*
X46093096Y-21375000D01*
X46405673Y-21375000D01*
X46405673Y-21687500D01*
G37*
G36*
X46405673Y-26375000D02*
G01*
X46093096Y-26375000D01*
X46093096Y-26062500D01*
X46405673Y-26062500D01*
X46405673Y-26375000D01*
G37*
G36*
X47655981Y-21687500D02*
G01*
X46718250Y-21687500D01*
X46718250Y-21375000D01*
X47655981Y-21375000D01*
X47655981Y-21687500D01*
G37*
G36*
X47655981Y-22312500D02*
G01*
X47030827Y-22312500D01*
X47030827Y-22625000D01*
X46718250Y-22625000D01*
X46718250Y-22312500D01*
X46093096Y-22312500D01*
X46093096Y-22000000D01*
X47655981Y-22000000D01*
X47655981Y-22312500D01*
G37*
G36*
X47343404Y-22937500D02*
G01*
X47655981Y-22937500D01*
X47655981Y-23250000D01*
X46093096Y-23250000D01*
X46093096Y-22937500D01*
X47030827Y-22937500D01*
X47030827Y-22625000D01*
X47343404Y-22625000D01*
X47343404Y-22937500D01*
G37*
G36*
X46405673Y-24187500D02*
G01*
X46718250Y-24187500D01*
X46718250Y-23875000D01*
X47030827Y-23875000D01*
X47030827Y-24187500D01*
X47343404Y-24187500D01*
X47343404Y-23562500D01*
X47655981Y-23562500D01*
X47655981Y-24500000D01*
X46093096Y-24500000D01*
X46093096Y-23562500D01*
X46405673Y-23562500D01*
X46405673Y-24187500D01*
G37*
G36*
X46405673Y-25437500D02*
G01*
X46718250Y-25437500D01*
X46718250Y-25125000D01*
X47030827Y-25125000D01*
X47030827Y-25437500D01*
X47343404Y-25437500D01*
X47343404Y-24812500D01*
X47655981Y-24812500D01*
X47655981Y-25750000D01*
X46093096Y-25750000D01*
X46093096Y-24812500D01*
X46405673Y-24812500D01*
X46405673Y-25437500D01*
G37*
G36*
X47030827Y-27937500D02*
G01*
X47343404Y-27937500D01*
X47343404Y-27312500D01*
X47655981Y-27312500D01*
X47655981Y-28250000D01*
X46718250Y-28250000D01*
X46718250Y-27625000D01*
X46405673Y-27625000D01*
X46405673Y-28250000D01*
X46093096Y-28250000D01*
X46093096Y-27312500D01*
X47030827Y-27312500D01*
X47030827Y-27937500D01*
G37*
G36*
X51406904Y-29500000D02*
G01*
X51719481Y-29500000D01*
X51719481Y-31375000D01*
X51406904Y-31375000D01*
X51406904Y-32312500D01*
X51094327Y-32312500D01*
X51094327Y-32625000D01*
X50881750Y-32625000D01*
X50881750Y-31162500D01*
X51194327Y-31162500D01*
X51194327Y-28875000D01*
X51406904Y-28875000D01*
X51406904Y-29500000D01*
G37*
G36*
X47343404Y-26375000D02*
G01*
X46718250Y-26375000D01*
X46718250Y-26687500D01*
X47343404Y-26687500D01*
X47343404Y-26375000D01*
X47655981Y-26375000D01*
X47655981Y-27000000D01*
X46718250Y-27000000D01*
X46093096Y-27000000D01*
X46093096Y-26687500D01*
X46405673Y-26687500D01*
X46405673Y-26375000D01*
X46718250Y-26375000D01*
X46718250Y-26062500D01*
X47343404Y-26062500D01*
X47343404Y-26375000D01*
G37*
G36*
X49744020Y-29087500D02*
G01*
X49431443Y-29087500D01*
X49431443Y-29400000D01*
X49118866Y-29400000D01*
X49118866Y-30650000D01*
X48806289Y-30650000D01*
X48806289Y-32937500D01*
X48593711Y-32937500D01*
X48593711Y-32625000D01*
X48381135Y-32625000D01*
X48381135Y-30537500D01*
X48693711Y-30537500D01*
X48693711Y-29287500D01*
X49006289Y-29287500D01*
X49006289Y-28562500D01*
X49218866Y-28562500D01*
X49218866Y-28250000D01*
X49744020Y-28250000D01*
X49744020Y-29087500D01*
G37*
G36*
X53746213Y-31346270D02*
G01*
X53774656Y-31357015D01*
X53818214Y-31375248D01*
X53872800Y-31399239D01*
X53934323Y-31427260D01*
X53955349Y-31436988D01*
X54019643Y-31466685D01*
X54099694Y-31503610D01*
X54191089Y-31545729D01*
X54289415Y-31591010D01*
X54390258Y-31637418D01*
X54489206Y-31682920D01*
X54544589Y-31708382D01*
X54637285Y-31751012D01*
X54725309Y-31791513D01*
X54805196Y-31828287D01*
X54873479Y-31859739D01*
X54926692Y-31884274D01*
X54961370Y-31900296D01*
X54975118Y-31906657D01*
X55017080Y-31926047D01*
X55076699Y-31953577D01*
X55151113Y-31987925D01*
X55237460Y-32027770D01*
X55332876Y-32071792D01*
X55434499Y-32118669D01*
X55539468Y-32167080D01*
X56020712Y-32389009D01*
X56020712Y-39645137D01*
X55932938Y-39699896D01*
X55903228Y-39718380D01*
X55853816Y-39749039D01*
X55791033Y-39787939D01*
X55718698Y-39832716D01*
X55640632Y-39881003D01*
X55560655Y-39930436D01*
X55559639Y-39931064D01*
X55472047Y-39985188D01*
X55369963Y-40048278D01*
X55259410Y-40116610D01*
X55146409Y-40186463D01*
X55036984Y-40254113D01*
X54937156Y-40315837D01*
X54902247Y-40337422D01*
X54813741Y-40392128D01*
X54727374Y-40445489D01*
X54646835Y-40495226D01*
X54575816Y-40539061D01*
X54518007Y-40574714D01*
X54477099Y-40599907D01*
X54473094Y-40602370D01*
X54389450Y-40653931D01*
X54324361Y-40694359D01*
X54275754Y-40724997D01*
X54241557Y-40747190D01*
X54219697Y-40762282D01*
X54208102Y-40771616D01*
X54204697Y-40776537D01*
X54214543Y-40784549D01*
X54242386Y-40803453D01*
X54285547Y-40831523D01*
X54341345Y-40867036D01*
X54407098Y-40908270D01*
X54480126Y-40953502D01*
X54534578Y-40987045D01*
X54633932Y-41048298D01*
X54742785Y-41115455D01*
X54854326Y-41184313D01*
X54961743Y-41250668D01*
X55058224Y-41310314D01*
X55139043Y-41360295D01*
X55245907Y-41426367D01*
X55361094Y-41497570D01*
X55478024Y-41569837D01*
X55590120Y-41639102D01*
X55690803Y-41701300D01*
X56020712Y-41905072D01*
X56020712Y-43004863D01*
X56020605Y-43191160D01*
X56020246Y-43376988D01*
X56019639Y-43543024D01*
X56018790Y-43688713D01*
X56017706Y-43813504D01*
X56016392Y-43916845D01*
X56014854Y-43998183D01*
X56013098Y-44056965D01*
X56011130Y-44092640D01*
X56008955Y-44104654D01*
X56008023Y-44104335D01*
X55991776Y-44095318D01*
X55956967Y-44074623D01*
X55905183Y-44043229D01*
X55838013Y-44002116D01*
X55757045Y-43952263D01*
X55663867Y-43894650D01*
X55560069Y-43830257D01*
X55487040Y-43784825D01*
X55447237Y-43760063D01*
X55326961Y-43685049D01*
X55200828Y-43606193D01*
X55082872Y-43532369D01*
X54949692Y-43449032D01*
X54818967Y-43367247D01*
X54692954Y-43288424D01*
X54573912Y-43213977D01*
X54464100Y-43145318D01*
X54365777Y-43083859D01*
X54281200Y-43031013D01*
X54212630Y-42988191D01*
X54162323Y-42956807D01*
X54137386Y-42941256D01*
X54059384Y-42892537D01*
X53982031Y-42844119D01*
X53910306Y-42799124D01*
X53849187Y-42760673D01*
X53803651Y-42731888D01*
X53782208Y-42718359D01*
X53739492Y-42691544D01*
X53679071Y-42653694D01*
X53602472Y-42605764D01*
X53511220Y-42548706D01*
X53406843Y-42483475D01*
X53290867Y-42411025D01*
X53164819Y-42332309D01*
X53030224Y-42248281D01*
X52888609Y-42159895D01*
X52741501Y-42068104D01*
X52590426Y-41973863D01*
X51493739Y-41289831D01*
X51493741Y-40968818D01*
X52012838Y-40968818D01*
X52094826Y-41021092D01*
X52099169Y-41023857D01*
X52134715Y-41046315D01*
X52187503Y-41079493D01*
X52254721Y-41121633D01*
X52333559Y-41170977D01*
X52421205Y-41225767D01*
X52514849Y-41284246D01*
X52611679Y-41344657D01*
X52708883Y-41405242D01*
X52803651Y-41464244D01*
X52836541Y-41484792D01*
X52892358Y-41519902D01*
X52942879Y-41551920D01*
X52949311Y-41555985D01*
X52976274Y-41572915D01*
X53021201Y-41601065D01*
X53082550Y-41639470D01*
X53158784Y-41687171D01*
X53248361Y-41743203D01*
X53349742Y-41806605D01*
X53461388Y-41876415D01*
X53581758Y-41951670D01*
X53709312Y-42031409D01*
X53842512Y-42114668D01*
X53979817Y-42200487D01*
X54119688Y-42287902D01*
X54260584Y-42375951D01*
X54400966Y-42463673D01*
X54539295Y-42550104D01*
X54674030Y-42634283D01*
X54803631Y-42715248D01*
X54926560Y-42792036D01*
X55041276Y-42863685D01*
X55146239Y-42929233D01*
X55239910Y-42987718D01*
X55320748Y-43038177D01*
X55387215Y-43079649D01*
X55437771Y-43111170D01*
X55470875Y-43131780D01*
X55484988Y-43140515D01*
X55487040Y-43140628D01*
X55490560Y-43133239D01*
X55493424Y-43114237D01*
X55495686Y-43081825D01*
X55497401Y-43034200D01*
X55498626Y-42969564D01*
X55499415Y-42886115D01*
X55499824Y-42782055D01*
X55499909Y-42655583D01*
X55499697Y-42161518D01*
X55333441Y-42059631D01*
X55307801Y-42043903D01*
X55233828Y-41998423D01*
X55142796Y-41942339D01*
X55037168Y-41877177D01*
X54919412Y-41804458D01*
X54791991Y-41725706D01*
X54657371Y-41642445D01*
X54518016Y-41556197D01*
X54376392Y-41468485D01*
X54234964Y-41380834D01*
X54200601Y-41359536D01*
X54115230Y-41306659D01*
X54016615Y-41245617D01*
X53909752Y-41179501D01*
X53799637Y-41111402D01*
X53691266Y-41044409D01*
X53589633Y-40981615D01*
X53584813Y-40978636D01*
X53499429Y-40925475D01*
X53421471Y-40876202D01*
X53353147Y-40832269D01*
X53296667Y-40795126D01*
X53254240Y-40766226D01*
X53228073Y-40747020D01*
X53220377Y-40738960D01*
X53221678Y-40737968D01*
X53238946Y-40726574D01*
X53272849Y-40705040D01*
X53320147Y-40675396D01*
X53377600Y-40639676D01*
X53441970Y-40599913D01*
X53476924Y-40578374D01*
X53557753Y-40528497D01*
X53649857Y-40471594D01*
X53747084Y-40411468D01*
X53843280Y-40351924D01*
X53932295Y-40296765D01*
X53939927Y-40292032D01*
X54011629Y-40247608D01*
X54099247Y-40193370D01*
X54199972Y-40131053D01*
X54310997Y-40062392D01*
X54429514Y-39989121D01*
X54552714Y-39912977D01*
X54677789Y-39835694D01*
X54801931Y-39759007D01*
X54922332Y-39684650D01*
X55036183Y-39614360D01*
X55140677Y-39549870D01*
X55233004Y-39492917D01*
X55310358Y-39445234D01*
X55369929Y-39408557D01*
X55500032Y-39328534D01*
X55500077Y-38833791D01*
X55500121Y-38339048D01*
X55472881Y-38356628D01*
X55469914Y-38358506D01*
X55448831Y-38371744D01*
X55409110Y-38396633D01*
X55352088Y-38432336D01*
X55279102Y-38478018D01*
X55191490Y-38532842D01*
X55090588Y-38595973D01*
X54977732Y-38666574D01*
X54854261Y-38743810D01*
X54721511Y-38826845D01*
X54580819Y-38914841D01*
X54433521Y-39006964D01*
X54280956Y-39102378D01*
X54124459Y-39200245D01*
X53965368Y-39299732D01*
X53805020Y-39400000D01*
X53644751Y-39500215D01*
X53485899Y-39599540D01*
X53329800Y-39697139D01*
X53177792Y-39792176D01*
X53031211Y-39883816D01*
X52891394Y-39971222D01*
X52759679Y-40053558D01*
X52637402Y-40129988D01*
X52525901Y-40199676D01*
X52426511Y-40261787D01*
X52340570Y-40315483D01*
X52269416Y-40359930D01*
X52214385Y-40394290D01*
X52176813Y-40417729D01*
X52024909Y-40512409D01*
X52019425Y-40515827D01*
X52016132Y-40742322D01*
X52012838Y-40968818D01*
X51493741Y-40968818D01*
X51493766Y-36828486D01*
X51493774Y-35460422D01*
X52013269Y-35460422D01*
X54084588Y-35460422D01*
X53954753Y-35209206D01*
X53946013Y-35192301D01*
X53902030Y-35107388D01*
X53856524Y-35019761D01*
X53812649Y-34935479D01*
X53773558Y-34860603D01*
X53742405Y-34801190D01*
X53729688Y-34776908D01*
X53702160Y-34723476D01*
X53680015Y-34679271D01*
X53665257Y-34648338D01*
X53659892Y-34634722D01*
X53652836Y-34632941D01*
X53624340Y-34630803D01*
X53576564Y-34628908D01*
X53512289Y-34627320D01*
X53434293Y-34626105D01*
X53345358Y-34625328D01*
X53248262Y-34625055D01*
X52836632Y-34625055D01*
X52836632Y-33212651D01*
X52906246Y-33181499D01*
X52908755Y-33180373D01*
X52940395Y-33166021D01*
X52990000Y-33143350D01*
X53054000Y-33114000D01*
X53128828Y-33079608D01*
X53210914Y-33041814D01*
X53296689Y-33002254D01*
X53308928Y-32996605D01*
X53393818Y-32957458D01*
X53474065Y-32920505D01*
X53546202Y-32887339D01*
X53606762Y-32859554D01*
X53652277Y-32838742D01*
X53679281Y-32826495D01*
X53741043Y-32798829D01*
X54193818Y-33007448D01*
X54235566Y-33026676D01*
X54331567Y-33070832D01*
X54420213Y-33111526D01*
X54499066Y-33147641D01*
X54565687Y-33178065D01*
X54617639Y-33201682D01*
X54652483Y-33217379D01*
X54667781Y-33224041D01*
X54670590Y-33225748D01*
X54673647Y-33230174D01*
X54676347Y-33238462D01*
X54678710Y-33251969D01*
X54680760Y-33272051D01*
X54682518Y-33300065D01*
X54684007Y-33337368D01*
X54685249Y-33385317D01*
X54686266Y-33445268D01*
X54687081Y-33518579D01*
X54687714Y-33606606D01*
X54688190Y-33710705D01*
X54688529Y-33832235D01*
X54688754Y-33972550D01*
X54688888Y-34133009D01*
X54688951Y-34314968D01*
X54688968Y-34519783D01*
X54688968Y-35807550D01*
X53981622Y-35815555D01*
X53909648Y-35816321D01*
X53770933Y-35817543D01*
X53633645Y-35818440D01*
X53501040Y-35819009D01*
X53376371Y-35819245D01*
X53262894Y-35819143D01*
X53163863Y-35818701D01*
X53082534Y-35817913D01*
X53022160Y-35816776D01*
X52770045Y-35809993D01*
X52019425Y-36157861D01*
X52016361Y-38092288D01*
X52016270Y-38152212D01*
X52015951Y-38418438D01*
X52015804Y-38665955D01*
X52015826Y-38894305D01*
X52016015Y-39103028D01*
X52016369Y-39291666D01*
X52016887Y-39459760D01*
X52017566Y-39606852D01*
X52018404Y-39732483D01*
X52019399Y-39836194D01*
X52020549Y-39917527D01*
X52021852Y-39976022D01*
X52023306Y-40011222D01*
X52024909Y-40022668D01*
X52026058Y-40022120D01*
X52043019Y-40012303D01*
X52077732Y-39991438D01*
X52127905Y-39960925D01*
X52191246Y-39922166D01*
X52265463Y-39876563D01*
X52348265Y-39825518D01*
X52437360Y-39770431D01*
X52838200Y-39522242D01*
X52823744Y-36671098D01*
X53369176Y-36671098D01*
X53372279Y-37571699D01*
X53375383Y-38472299D01*
X53756746Y-38234211D01*
X54138110Y-37996123D01*
X54141240Y-37333611D01*
X54144370Y-36671098D01*
X54688968Y-36671098D01*
X54688968Y-37512519D01*
X54689004Y-37609519D01*
X54689183Y-37745017D01*
X54689499Y-37871855D01*
X54689940Y-37988089D01*
X54690493Y-38091776D01*
X54691144Y-38180970D01*
X54691882Y-38253728D01*
X54692694Y-38308104D01*
X54693566Y-38342156D01*
X54694486Y-38353939D01*
X54695396Y-38353562D01*
X54711199Y-38344448D01*
X54744740Y-38324201D01*
X54793777Y-38294201D01*
X54856069Y-38255828D01*
X54929374Y-38210461D01*
X55011453Y-38159480D01*
X55100063Y-38104264D01*
X55500121Y-37854588D01*
X55500000Y-35286413D01*
X55499879Y-32718239D01*
X55000596Y-32488877D01*
X54983848Y-32481183D01*
X54860797Y-32424623D01*
X54729547Y-32364249D01*
X54595133Y-32302380D01*
X54462590Y-32241335D01*
X54336950Y-32183432D01*
X54223250Y-32130990D01*
X54126523Y-32086327D01*
X54058220Y-32054872D01*
X53974145Y-32016466D01*
X53898817Y-31982405D01*
X53834876Y-31953865D01*
X53784961Y-31932023D01*
X53751713Y-31918056D01*
X53737772Y-31913138D01*
X53730312Y-31914895D01*
X53703524Y-31924847D01*
X53663647Y-31941626D01*
X53616185Y-31962977D01*
X53597986Y-31971399D01*
X53537661Y-31999260D01*
X53478084Y-32026705D01*
X53429864Y-32048847D01*
X53405727Y-32059917D01*
X53368322Y-32077104D01*
X53317767Y-32100357D01*
X53253081Y-32130128D01*
X53173282Y-32166869D01*
X53077387Y-32211033D01*
X52964414Y-32263071D01*
X52833380Y-32323437D01*
X52683304Y-32392583D01*
X52513203Y-32470961D01*
X52322094Y-32559023D01*
X52019425Y-32698496D01*
X52013269Y-35460422D01*
X51493774Y-35460422D01*
X51493793Y-32367142D01*
X51738449Y-32255555D01*
X51789383Y-32232276D01*
X51860002Y-32199927D01*
X51947938Y-32159597D01*
X52050851Y-32112359D01*
X52166405Y-32059289D01*
X52292258Y-32001459D01*
X52426074Y-31939946D01*
X52565513Y-31875823D01*
X52708236Y-31810164D01*
X52851905Y-31744044D01*
X52894591Y-31724405D01*
X53029409Y-31662501D01*
X53157533Y-31603858D01*
X53277264Y-31549243D01*
X53386904Y-31499423D01*
X53484754Y-31455164D01*
X53569116Y-31417232D01*
X53638293Y-31386396D01*
X53690586Y-31363421D01*
X53724297Y-31349073D01*
X53737727Y-31344120D01*
X53746213Y-31346270D01*
G37*
D11*
%TO.C,TP6*%
X45700000Y-22750000D02*
G75*
G02*
X43800000Y-22750000I-950000J0D01*
G01*
X43800000Y-22750000D02*
G75*
G02*
X45700000Y-22750000I950000J0D01*
G01*
%TO.C,TP2*%
X19700000Y-50250000D02*
G75*
G02*
X17800000Y-50250000I-950000J0D01*
G01*
X17800000Y-50250000D02*
G75*
G02*
X19700000Y-50250000I950000J0D01*
G01*
%TO.C,TP3*%
X50700000Y-51750000D02*
G75*
G02*
X48800000Y-51750000I-950000J0D01*
G01*
X48800000Y-51750000D02*
G75*
G02*
X50700000Y-51750000I950000J0D01*
G01*
%TD*%
M02*
