%TF.GenerationSoftware,KiCad,Pcbnew,8.0.6*%
%TF.CreationDate,2025-02-05T09:35:26+00:00*%
%TF.ProjectId,ElectriPi,456c6563-7472-4695-9069-2e6b69636164,rev?*%
%TF.SameCoordinates,PX514cfd0PY31d4590*%
%TF.FileFunction,Soldermask,Bot*%
%TF.FilePolarity,Negative*%
%FSLAX46Y46*%
G04 Gerber Fmt 4.6, Leading zero omitted, Abs format (unit mm)*
G04 Created by KiCad (PCBNEW 8.0.6) date 2025-02-05 09:35:26*
%MOMM*%
%LPD*%
G01*
G04 APERTURE LIST*
G04 Aperture macros list*
%AMRoundRect*
0 Rectangle with rounded corners*
0 $1 Rounding radius*
0 $2 $3 $4 $5 $6 $7 $8 $9 X,Y pos of 4 corners*
0 Add a 4 corners polygon primitive as box body*
4,1,4,$2,$3,$4,$5,$6,$7,$8,$9,$2,$3,0*
0 Add four circle primitives for the rounded corners*
1,1,$1+$1,$2,$3*
1,1,$1+$1,$4,$5*
1,1,$1+$1,$6,$7*
1,1,$1+$1,$8,$9*
0 Add four rect primitives between the rounded corners*
20,1,$1+$1,$2,$3,$4,$5,0*
20,1,$1+$1,$4,$5,$6,$7,0*
20,1,$1+$1,$6,$7,$8,$9,0*
20,1,$1+$1,$8,$9,$2,$3,0*%
%AMFreePoly0*
4,1,19,0.550000,-0.750000,0.000000,-0.750000,0.000000,-0.744911,-0.071157,-0.744911,-0.207708,-0.704816,-0.327430,-0.627875,-0.420627,-0.520320,-0.479746,-0.390866,-0.500000,-0.250000,-0.500000,0.250000,-0.479746,0.390866,-0.420627,0.520320,-0.327430,0.627875,-0.207708,0.704816,-0.071157,0.744911,0.000000,0.744911,0.000000,0.750000,0.550000,0.750000,0.550000,-0.750000,0.550000,-0.750000,
$1*%
%AMFreePoly1*
4,1,19,0.000000,0.744911,0.071157,0.744911,0.207708,0.704816,0.327430,0.627875,0.420627,0.520320,0.479746,0.390866,0.500000,0.250000,0.500000,-0.250000,0.479746,-0.390866,0.420627,-0.520320,0.327430,-0.627875,0.207708,-0.704816,0.071157,-0.744911,0.000000,-0.744911,0.000000,-0.750000,-0.550000,-0.750000,-0.550000,0.750000,0.000000,0.750000,0.000000,0.744911,0.000000,0.744911,
$1*%
G04 Aperture macros list end*
%ADD10C,0.000000*%
%ADD11C,4.700000*%
%ADD12RoundRect,0.250000X0.600000X0.750000X-0.600000X0.750000X-0.600000X-0.750000X0.600000X-0.750000X0*%
%ADD13O,1.700000X2.000000*%
%ADD14C,1.020000*%
%ADD15C,1.270000*%
%ADD16C,2.780000*%
%ADD17C,7.000000*%
%ADD18RoundRect,0.250000X-0.750000X0.600000X-0.750000X-0.600000X0.750000X-0.600000X0.750000X0.600000X0*%
%ADD19O,2.000000X1.700000*%
%ADD20C,1.500000*%
%ADD21FreePoly0,180.000000*%
%ADD22R,1.000000X1.500000*%
%ADD23FreePoly1,180.000000*%
G04 APERTURE END LIST*
D10*
%TO.C,G\u002A\u002A\u002A*%
G36*
X46093096Y-31062500D02*
G01*
X45780519Y-31062500D01*
X45780519Y-29812500D01*
X46093096Y-29812500D01*
X46093096Y-31062500D01*
G37*
G36*
X48906289Y-29187500D02*
G01*
X48593711Y-29187500D01*
X48593711Y-30437500D01*
X48281135Y-30437500D01*
X48281135Y-32312500D01*
X47343404Y-32312500D01*
X47343404Y-32000000D01*
X47030827Y-32000000D01*
X47030827Y-31687500D01*
X47343404Y-31687500D01*
X47968558Y-31687500D01*
X47968558Y-30750000D01*
X47343404Y-30750000D01*
X47343404Y-31687500D01*
X47030827Y-31687500D01*
X46718250Y-31687500D01*
X46405673Y-31687500D01*
X46405673Y-30125000D01*
X46718250Y-30125000D01*
X46718250Y-30750000D01*
X47343404Y-30750000D01*
X47343404Y-30125000D01*
X47968558Y-30125000D01*
X47968558Y-29187500D01*
X47343404Y-29187500D01*
X47343404Y-30125000D01*
X46718250Y-30125000D01*
X46405673Y-30125000D01*
X46405673Y-29187500D01*
X47030827Y-29187500D01*
X47030827Y-28875000D01*
X47343404Y-28875000D01*
X47343404Y-28562500D01*
X48906289Y-28562500D01*
X48906289Y-29187500D01*
G37*
G36*
X50781750Y-28562500D02*
G01*
X51094327Y-28562500D01*
X51094327Y-31062500D01*
X50781750Y-31062500D01*
X50781750Y-32625000D01*
X50469173Y-32625000D01*
X50469173Y-32937500D01*
X49218866Y-32937500D01*
X48906289Y-32937500D01*
X48906289Y-31062500D01*
X49218866Y-31062500D01*
X49218866Y-32000000D01*
X49531443Y-32000000D01*
X49531443Y-31687500D01*
X50156597Y-31687500D01*
X50156597Y-32000000D01*
X50469173Y-32000000D01*
X50469173Y-31062500D01*
X50156597Y-31062500D01*
X50156597Y-30750000D01*
X50781750Y-30750000D01*
X50781750Y-29812500D01*
X50469173Y-29812500D01*
X50469173Y-30125000D01*
X49844020Y-30125000D01*
X49844020Y-29812500D01*
X49531443Y-29812500D01*
X49531443Y-30750000D01*
X49844020Y-30750000D01*
X49844020Y-31062500D01*
X49218866Y-31062500D01*
X48906289Y-31062500D01*
X48906289Y-30750000D01*
X49218866Y-30750000D01*
X49218866Y-29500000D01*
X49531443Y-29500000D01*
X49531443Y-29187500D01*
X49844020Y-29187500D01*
X49844020Y-28250000D01*
X50781750Y-28250000D01*
X50781750Y-28562500D01*
G37*
%TD*%
D11*
%TO.C,H2*%
X3500000Y-4500000D03*
%TD*%
D12*
%TO.C,J1*%
X14380000Y-53745996D03*
D13*
X11880000Y-53745996D03*
%TD*%
D14*
%TO.C,J6*%
X8370000Y-5770000D03*
X10910000Y-5770000D03*
X13450000Y-5770000D03*
X15990000Y-5770000D03*
X18530000Y-5770000D03*
X21070000Y-5770000D03*
X23610000Y-5770000D03*
X26150000Y-5770000D03*
X28690000Y-5770000D03*
X31230000Y-5770000D03*
X33770000Y-5770000D03*
X36310000Y-5770000D03*
X38850000Y-5770000D03*
X41390000Y-5770000D03*
X43930000Y-5770000D03*
X46470000Y-5770000D03*
X49010000Y-5770000D03*
X51550000Y-5770000D03*
X54090000Y-5770000D03*
X56630000Y-5770000D03*
D15*
X9640000Y-4500000D03*
X55360000Y-4500000D03*
D14*
X8370000Y-3230000D03*
X10910000Y-3230000D03*
X13450000Y-3230000D03*
X15990000Y-3230000D03*
X18530000Y-3230000D03*
X21070000Y-3230000D03*
X23610000Y-3230000D03*
X26150000Y-3230000D03*
X28690000Y-3230000D03*
X31230000Y-3230000D03*
X33770000Y-3230000D03*
X36310000Y-3230000D03*
X38850000Y-3230000D03*
X41390000Y-3230000D03*
X43930000Y-3230000D03*
X46470000Y-3230000D03*
X49010000Y-3230000D03*
X51550000Y-3230000D03*
X54090000Y-3230000D03*
X56630000Y-3230000D03*
%TD*%
D16*
%TO.C,F1*%
X26740000Y-51400000D03*
X26740000Y-54800000D03*
X40240000Y-51400000D03*
X40240000Y-54800000D03*
%TD*%
D12*
%TO.C,J3*%
X46000000Y-12700000D03*
D13*
X43500000Y-12700000D03*
%TD*%
D11*
%TO.C,H3*%
X61500000Y-4500000D03*
%TD*%
D17*
%TO.C,U2*%
X4250000Y-13100000D03*
X36250000Y-13100000D03*
X4250000Y-45100000D03*
X36250000Y-45100000D03*
%TD*%
D18*
%TO.C,J4*%
X61600000Y-11899996D03*
D19*
X61600000Y-14399996D03*
%TD*%
D11*
%TO.C,H1*%
X61500000Y-53500000D03*
%TD*%
%TO.C,H4*%
X3500000Y-53500000D03*
%TD*%
D20*
%TO.C,TP5*%
X44750000Y-9250000D03*
%TD*%
D21*
%TO.C,JP1*%
X48300000Y-19750000D03*
D22*
X47000000Y-19750000D03*
D23*
X45700000Y-19750000D03*
%TD*%
D20*
%TO.C,TP4*%
X55500000Y-45750000D03*
%TD*%
%TO.C,TP1*%
X57000000Y-18000000D03*
%TD*%
%TO.C,TP6*%
X44750000Y-22750000D03*
%TD*%
%TO.C,TP2*%
X18750000Y-50250000D03*
%TD*%
%TO.C,TP3*%
X49750000Y-51750000D03*
%TD*%
M02*
