M48
; DRILL file {KiCad 8.0.8} date 2025-01-29T16:05:45+0000
; FORMAT={-:-/ absolute / inch / decimal}
; #@! TF.CreationDate,2025-01-29T16:05:45+00:00
; #@! TF.GenerationSoftware,Kicad,Pcbnew,8.0.8
; #@! TF.FileFunction,NonPlated,1,2,NPTH
FMAT,2
INCH
; #@! TA.AperFunction,NonPlated,NPTH,ComponentDrill
T1C0.0402
; #@! TA.AperFunction,NonPlated,NPTH,ComponentDrill
T2C0.0500
%
G90
G05
T1
X0.3295Y-0.1272
X0.3295Y-0.2272
X0.4295Y-0.1272
X0.4295Y-0.2272
X0.5295Y-0.1272
X0.5295Y-0.2272
X0.6295Y-0.1272
X0.6295Y-0.2272
X0.7295Y-0.1272
X0.7295Y-0.2272
X0.8295Y-0.1272
X0.8295Y-0.2272
X0.9295Y-0.1272
X0.9295Y-0.2272
X1.0295Y-0.1272
X1.0295Y-0.2272
X1.1295Y-0.1272
X1.1295Y-0.2272
X1.2295Y-0.1272
X1.2295Y-0.2272
X1.3295Y-0.1272
X1.3295Y-0.2272
X1.4295Y-0.1272
X1.4295Y-0.2272
X1.5295Y-0.1272
X1.5295Y-0.2272
X1.6295Y-0.1272
X1.6295Y-0.2272
X1.7295Y-0.1272
X1.7295Y-0.2272
X1.8295Y-0.1272
X1.8295Y-0.2272
X1.9295Y-0.1272
X1.9295Y-0.2272
X2.0295Y-0.1272
X2.0295Y-0.2272
X2.1295Y-0.1272
X2.1295Y-0.2272
X2.2295Y-0.1272
X2.2295Y-0.2272
T2
X0.3795Y-0.1772
X2.1795Y-0.1772
M30
