M48
; DRILL file {KiCad 8.0.8} date 2025-01-29T16:05:45+0000
; FORMAT={-:-/ absolute / inch / decimal}
; #@! TF.CreationDate,2025-01-29T16:05:45+00:00
; #@! TF.GenerationSoftware,Kicad,Pcbnew,8.0.8
; #@! TF.FileFunction,Plated,1,2,PTH
FMAT,2
INCH
; #@! TA.AperFunction,Plated,PTH,ViaDrill
T1C0.0118
; #@! TA.AperFunction,Plated,PTH,ComponentDrill
T2C0.0118
; #@! TA.AperFunction,Plated,PTH,ComponentDrill
T3C0.0394
; #@! TA.AperFunction,Plated,PTH,ComponentDrill
T4C0.0701
; #@! TA.AperFunction,Plated,PTH,ComponentDrill
T5C0.1063
; #@! TA.AperFunction,Plated,PTH,ComponentDrill
T6C0.1378
%
G90
G05
T1
X0.57Y-0.0394
X0.57Y-0.0744
X0.689Y-1.9783
X0.77Y-0.2794
X0.77Y-0.3144
X0.7874Y-1.9783
X0.97Y-0.0394
X0.97Y-0.0744
X1.27Y-0.0394
X1.27Y-0.0744
X1.57Y-0.2794
X1.57Y-0.3144
X1.6142Y-0.5118
X1.6142Y-0.5807
X1.6142Y-0.6535
X1.6142Y-0.6988
X1.6142Y-0.7579
X1.6142Y-0.7874
X1.6142Y-0.8169
X1.6142Y-0.8465
X1.6142Y-0.876
X1.6142Y-0.9055
X1.6142Y-0.935
X1.6142Y-0.9646
X1.6142Y-0.9941
X1.6732Y-0.5807
X1.6732Y-0.6535
X1.6732Y-0.6988
X1.6732Y-0.7579
X1.7028Y-0.3642
X1.752Y-0.7776
X1.7618Y-0.561
X1.7618Y-0.6102
X1.77Y-0.0394
X1.77Y-0.0744
X1.8209Y-0.3642
X1.8504Y-1.5453
X1.8504Y-1.7126
X1.8504Y-1.7618
X1.8504Y-1.8012
X1.8504Y-1.8602
X1.8504Y-1.9193
X1.8602Y-0.561
X1.8602Y-0.5906
X1.8996Y-2.0374
X1.9094Y-1.5453
X1.9094Y-1.7126
X1.9094Y-1.7618
X1.9094Y-1.8012
X1.9242Y-0.5481
X1.939Y-0.6398
X1.9587Y-1.5453
X1.9587Y-1.7126
X1.9587Y-1.7618
X1.9587Y-1.8012
X1.97Y-0.0394
X1.97Y-0.0744
X1.9791Y-0.565
X1.9882Y-0.4508
X2.0079Y-0.8465
X2.0079Y-0.9843
X2.0079Y-1.5453
X2.0079Y-1.5945
X2.0079Y-1.6535
X2.0079Y-1.7126
X2.0079Y-1.7618
X2.0079Y-1.8012
X2.0177Y-2.0374
X2.0374Y-0.8465
X2.0374Y-0.9843
X2.0669Y-0.8465
X2.0669Y-0.9843
X2.0866Y-0.502
X2.0866Y-0.5945
X2.0965Y-0.8465
X2.0965Y-0.9843
X2.1004Y-0.4783
X2.1142Y-0.502
X2.1142Y-0.5945
X2.126Y-0.8465
X2.126Y-0.8858
X2.126Y-0.9154
X2.126Y-0.9449
X2.126Y-0.9843
X2.1398Y-1.0295
X2.1398Y-1.25
X2.185Y-1.752
X2.185Y-1.8504
X2.189Y-1.1457
X2.189Y-1.1752
X2.1988Y-1.3051
X2.2047Y-0.7087
X2.2155Y-0.5745
X2.2383Y-0.5206
X2.2476Y-1.0807
X2.248Y-0.9882
X2.2539Y-0.3642
X2.2539Y-0.3937
X2.2539Y-0.4232
X2.2539Y-2.1457
X2.2835Y-0.7087
X2.2933Y-2.0669
X2.3268Y-1.187
X2.3268Y-1.3051
X2.3346Y-0.9173
X2.3661Y-1.2539
X2.3661Y-1.2933
X2.3858Y-1.2736
X2.3858Y-1.313
X2.3858Y-1.3425
X2.3858Y-1.372
X2.3937Y-0.9173
X2.4055Y-1.2539
X2.4055Y-1.2933
X2.4154Y-1.0177
X2.4154Y-1.1772
X2.4154Y-1.3425
X2.4154Y-1.372
X2.4154Y-1.4016
X2.4154Y-1.4409
X2.4154Y-1.4803
X2.4154Y-1.5197
X2.4252Y-1.2736
X2.4252Y-1.313
X2.4547Y-1.0768
X2.4547Y-1.2835
X2.4547Y-1.3228
X2.4547Y-1.3622
X2.4547Y-1.4016
X2.4547Y-1.4409
X2.4547Y-1.4803
X2.4547Y-1.5197
X2.5236Y-1.1713
X2.5236Y-1.2008
X2.5236Y-1.2303
X2.5236Y-1.2598
X2.5236Y-1.2894
T2
X2.2441Y-1.2205
X2.2441Y-1.2598
X2.2835Y-1.2205
X2.2835Y-1.2598
T3
X0.4677Y-2.116
X0.5661Y-2.116
X1.7126Y-0.5
X1.811Y-0.5
X2.4252Y-0.4685
X2.4252Y-0.5669
T4
X1.0528Y-2.0236
X1.0528Y-2.1575
X1.5843Y-2.0236
X1.5843Y-2.1575
T5
X0.1378Y-0.1772
X0.1378Y-2.1063
X2.4213Y-0.1772
X2.4213Y-2.1063
T6
X0.1673Y-0.5157
X0.1673Y-1.7756
X1.4272Y-0.5157
X1.4272Y-1.7756
M30
