%TF.GenerationSoftware,KiCad,Pcbnew,8.0.6*%
%TF.CreationDate,2025-02-05T09:35:26+00:00*%
%TF.ProjectId,ElectriPi,456c6563-7472-4695-9069-2e6b69636164,rev?*%
%TF.SameCoordinates,PX514cfd0PY31d4590*%
%TF.FileFunction,Other,Comment*%
%FSLAX46Y46*%
G04 Gerber Fmt 4.6, Leading zero omitted, Abs format (unit mm)*
G04 Created by KiCad (PCBNEW 8.0.6) date 2025-02-05 09:35:26*
%MOMM*%
%LPD*%
G01*
G04 APERTURE LIST*
%ADD10C,0.150000*%
G04 APERTURE END LIST*
D10*
X23741071Y-76478670D02*
X23928571Y-74978670D01*
X23928571Y-74978670D02*
X24285714Y-74978670D01*
X24285714Y-74978670D02*
X24491071Y-75050099D01*
X24491071Y-75050099D02*
X24616071Y-75192956D01*
X24616071Y-75192956D02*
X24669642Y-75335813D01*
X24669642Y-75335813D02*
X24705357Y-75621527D01*
X24705357Y-75621527D02*
X24678571Y-75835813D01*
X24678571Y-75835813D02*
X24571428Y-76121527D01*
X24571428Y-76121527D02*
X24482142Y-76264384D01*
X24482142Y-76264384D02*
X24321428Y-76407242D01*
X24321428Y-76407242D02*
X24098214Y-76478670D01*
X24098214Y-76478670D02*
X23741071Y-76478670D01*
X25241071Y-76478670D02*
X25366071Y-75478670D01*
X25428571Y-74978670D02*
X25348214Y-75050099D01*
X25348214Y-75050099D02*
X25410714Y-75121527D01*
X25410714Y-75121527D02*
X25491071Y-75050099D01*
X25491071Y-75050099D02*
X25428571Y-74978670D01*
X25428571Y-74978670D02*
X25410714Y-75121527D01*
X25955357Y-76478670D02*
X26080357Y-75478670D01*
X26062500Y-75621527D02*
X26142857Y-75550099D01*
X26142857Y-75550099D02*
X26294643Y-75478670D01*
X26294643Y-75478670D02*
X26508928Y-75478670D01*
X26508928Y-75478670D02*
X26642857Y-75550099D01*
X26642857Y-75550099D02*
X26696428Y-75692956D01*
X26696428Y-75692956D02*
X26598214Y-76478670D01*
X26696428Y-75692956D02*
X26785714Y-75550099D01*
X26785714Y-75550099D02*
X26937500Y-75478670D01*
X26937500Y-75478670D02*
X27151785Y-75478670D01*
X27151785Y-75478670D02*
X27285714Y-75550099D01*
X27285714Y-75550099D02*
X27339285Y-75692956D01*
X27339285Y-75692956D02*
X27241071Y-76478670D01*
X28535714Y-76407242D02*
X28383928Y-76478670D01*
X28383928Y-76478670D02*
X28098214Y-76478670D01*
X28098214Y-76478670D02*
X27964285Y-76407242D01*
X27964285Y-76407242D02*
X27910714Y-76264384D01*
X27910714Y-76264384D02*
X27982143Y-75692956D01*
X27982143Y-75692956D02*
X28071428Y-75550099D01*
X28071428Y-75550099D02*
X28223214Y-75478670D01*
X28223214Y-75478670D02*
X28508928Y-75478670D01*
X28508928Y-75478670D02*
X28642857Y-75550099D01*
X28642857Y-75550099D02*
X28696428Y-75692956D01*
X28696428Y-75692956D02*
X28678571Y-75835813D01*
X28678571Y-75835813D02*
X27946428Y-75978670D01*
X29366071Y-75478670D02*
X29241071Y-76478670D01*
X29348214Y-75621527D02*
X29428571Y-75550099D01*
X29428571Y-75550099D02*
X29580357Y-75478670D01*
X29580357Y-75478670D02*
X29794642Y-75478670D01*
X29794642Y-75478670D02*
X29928571Y-75550099D01*
X29928571Y-75550099D02*
X29982142Y-75692956D01*
X29982142Y-75692956D02*
X29883928Y-76478670D01*
X30535714Y-76407242D02*
X30669642Y-76478670D01*
X30669642Y-76478670D02*
X30955357Y-76478670D01*
X30955357Y-76478670D02*
X31107142Y-76407242D01*
X31107142Y-76407242D02*
X31196428Y-76264384D01*
X31196428Y-76264384D02*
X31205357Y-76192956D01*
X31205357Y-76192956D02*
X31151785Y-76050099D01*
X31151785Y-76050099D02*
X31017857Y-75978670D01*
X31017857Y-75978670D02*
X30803571Y-75978670D01*
X30803571Y-75978670D02*
X30669642Y-75907242D01*
X30669642Y-75907242D02*
X30616071Y-75764384D01*
X30616071Y-75764384D02*
X30625000Y-75692956D01*
X30625000Y-75692956D02*
X30714285Y-75550099D01*
X30714285Y-75550099D02*
X30866071Y-75478670D01*
X30866071Y-75478670D02*
X31080357Y-75478670D01*
X31080357Y-75478670D02*
X31214285Y-75550099D01*
X31812500Y-76478670D02*
X31937500Y-75478670D01*
X32000000Y-74978670D02*
X31919643Y-75050099D01*
X31919643Y-75050099D02*
X31982143Y-75121527D01*
X31982143Y-75121527D02*
X32062500Y-75050099D01*
X32062500Y-75050099D02*
X32000000Y-74978670D01*
X32000000Y-74978670D02*
X31982143Y-75121527D01*
X32741072Y-76478670D02*
X32607143Y-76407242D01*
X32607143Y-76407242D02*
X32544643Y-76335813D01*
X32544643Y-76335813D02*
X32491072Y-76192956D01*
X32491072Y-76192956D02*
X32544643Y-75764384D01*
X32544643Y-75764384D02*
X32633929Y-75621527D01*
X32633929Y-75621527D02*
X32714286Y-75550099D01*
X32714286Y-75550099D02*
X32866072Y-75478670D01*
X32866072Y-75478670D02*
X33080357Y-75478670D01*
X33080357Y-75478670D02*
X33214286Y-75550099D01*
X33214286Y-75550099D02*
X33276786Y-75621527D01*
X33276786Y-75621527D02*
X33330357Y-75764384D01*
X33330357Y-75764384D02*
X33276786Y-76192956D01*
X33276786Y-76192956D02*
X33187500Y-76335813D01*
X33187500Y-76335813D02*
X33107143Y-76407242D01*
X33107143Y-76407242D02*
X32955357Y-76478670D01*
X32955357Y-76478670D02*
X32741072Y-76478670D01*
X34008929Y-75478670D02*
X33883929Y-76478670D01*
X33991072Y-75621527D02*
X34071429Y-75550099D01*
X34071429Y-75550099D02*
X34223215Y-75478670D01*
X34223215Y-75478670D02*
X34437500Y-75478670D01*
X34437500Y-75478670D02*
X34571429Y-75550099D01*
X34571429Y-75550099D02*
X34625000Y-75692956D01*
X34625000Y-75692956D02*
X34526786Y-76478670D01*
X35178572Y-76407242D02*
X35312500Y-76478670D01*
X35312500Y-76478670D02*
X35598215Y-76478670D01*
X35598215Y-76478670D02*
X35750000Y-76407242D01*
X35750000Y-76407242D02*
X35839286Y-76264384D01*
X35839286Y-76264384D02*
X35848215Y-76192956D01*
X35848215Y-76192956D02*
X35794643Y-76050099D01*
X35794643Y-76050099D02*
X35660715Y-75978670D01*
X35660715Y-75978670D02*
X35446429Y-75978670D01*
X35446429Y-75978670D02*
X35312500Y-75907242D01*
X35312500Y-75907242D02*
X35258929Y-75764384D01*
X35258929Y-75764384D02*
X35267858Y-75692956D01*
X35267858Y-75692956D02*
X35357143Y-75550099D01*
X35357143Y-75550099D02*
X35508929Y-75478670D01*
X35508929Y-75478670D02*
X35723215Y-75478670D01*
X35723215Y-75478670D02*
X35857143Y-75550099D01*
X37508929Y-75478670D02*
X38080358Y-75478670D01*
X37785715Y-74978670D02*
X37625001Y-76264384D01*
X37625001Y-76264384D02*
X37678572Y-76407242D01*
X37678572Y-76407242D02*
X37812501Y-76478670D01*
X37812501Y-76478670D02*
X37955358Y-76478670D01*
X39098215Y-76478670D02*
X39196429Y-75692956D01*
X39196429Y-75692956D02*
X39142858Y-75550099D01*
X39142858Y-75550099D02*
X39008929Y-75478670D01*
X39008929Y-75478670D02*
X38723215Y-75478670D01*
X38723215Y-75478670D02*
X38571429Y-75550099D01*
X39107144Y-76407242D02*
X38955358Y-76478670D01*
X38955358Y-76478670D02*
X38598215Y-76478670D01*
X38598215Y-76478670D02*
X38464286Y-76407242D01*
X38464286Y-76407242D02*
X38410715Y-76264384D01*
X38410715Y-76264384D02*
X38428572Y-76121527D01*
X38428572Y-76121527D02*
X38517858Y-75978670D01*
X38517858Y-75978670D02*
X38669644Y-75907242D01*
X38669644Y-75907242D02*
X39026786Y-75907242D01*
X39026786Y-75907242D02*
X39178572Y-75835813D01*
X39812501Y-76478670D02*
X40000001Y-74978670D01*
X40026787Y-75907242D02*
X40383929Y-76478670D01*
X40508929Y-75478670D02*
X39866072Y-76050099D01*
X41607144Y-76407242D02*
X41455358Y-76478670D01*
X41455358Y-76478670D02*
X41169644Y-76478670D01*
X41169644Y-76478670D02*
X41035715Y-76407242D01*
X41035715Y-76407242D02*
X40982144Y-76264384D01*
X40982144Y-76264384D02*
X41053573Y-75692956D01*
X41053573Y-75692956D02*
X41142858Y-75550099D01*
X41142858Y-75550099D02*
X41294644Y-75478670D01*
X41294644Y-75478670D02*
X41580358Y-75478670D01*
X41580358Y-75478670D02*
X41714287Y-75550099D01*
X41714287Y-75550099D02*
X41767858Y-75692956D01*
X41767858Y-75692956D02*
X41750001Y-75835813D01*
X41750001Y-75835813D02*
X41017858Y-75978670D01*
X42437501Y-75478670D02*
X42312501Y-76478670D01*
X42419644Y-75621527D02*
X42500001Y-75550099D01*
X42500001Y-75550099D02*
X42651787Y-75478670D01*
X42651787Y-75478670D02*
X42866072Y-75478670D01*
X42866072Y-75478670D02*
X43000001Y-75550099D01*
X43000001Y-75550099D02*
X43053572Y-75692956D01*
X43053572Y-75692956D02*
X42955358Y-76478670D01*
X44723215Y-75478670D02*
X45294644Y-75478670D01*
X44812501Y-76478670D02*
X44973215Y-75192956D01*
X44973215Y-75192956D02*
X45062501Y-75050099D01*
X45062501Y-75050099D02*
X45214287Y-74978670D01*
X45214287Y-74978670D02*
X45357144Y-74978670D01*
X45669644Y-76478670D02*
X45794644Y-75478670D01*
X45758930Y-75764384D02*
X45848215Y-75621527D01*
X45848215Y-75621527D02*
X45928572Y-75550099D01*
X45928572Y-75550099D02*
X46080358Y-75478670D01*
X46080358Y-75478670D02*
X46223215Y-75478670D01*
X46812501Y-76478670D02*
X46678572Y-76407242D01*
X46678572Y-76407242D02*
X46616072Y-76335813D01*
X46616072Y-76335813D02*
X46562501Y-76192956D01*
X46562501Y-76192956D02*
X46616072Y-75764384D01*
X46616072Y-75764384D02*
X46705358Y-75621527D01*
X46705358Y-75621527D02*
X46785715Y-75550099D01*
X46785715Y-75550099D02*
X46937501Y-75478670D01*
X46937501Y-75478670D02*
X47151786Y-75478670D01*
X47151786Y-75478670D02*
X47285715Y-75550099D01*
X47285715Y-75550099D02*
X47348215Y-75621527D01*
X47348215Y-75621527D02*
X47401786Y-75764384D01*
X47401786Y-75764384D02*
X47348215Y-76192956D01*
X47348215Y-76192956D02*
X47258929Y-76335813D01*
X47258929Y-76335813D02*
X47178572Y-76407242D01*
X47178572Y-76407242D02*
X47026786Y-76478670D01*
X47026786Y-76478670D02*
X46812501Y-76478670D01*
X47955358Y-76478670D02*
X48080358Y-75478670D01*
X48062501Y-75621527D02*
X48142858Y-75550099D01*
X48142858Y-75550099D02*
X48294644Y-75478670D01*
X48294644Y-75478670D02*
X48508929Y-75478670D01*
X48508929Y-75478670D02*
X48642858Y-75550099D01*
X48642858Y-75550099D02*
X48696429Y-75692956D01*
X48696429Y-75692956D02*
X48598215Y-76478670D01*
X48696429Y-75692956D02*
X48785715Y-75550099D01*
X48785715Y-75550099D02*
X48937501Y-75478670D01*
X48937501Y-75478670D02*
X49151786Y-75478670D01*
X49151786Y-75478670D02*
X49285715Y-75550099D01*
X49285715Y-75550099D02*
X49339286Y-75692956D01*
X49339286Y-75692956D02*
X49241072Y-76478670D01*
X-8294646Y-78893586D02*
X-8107146Y-77393586D01*
X-7651789Y-78893586D02*
X-7553575Y-78107872D01*
X-7553575Y-78107872D02*
X-7607146Y-77965015D01*
X-7607146Y-77965015D02*
X-7741075Y-77893586D01*
X-7741075Y-77893586D02*
X-7955360Y-77893586D01*
X-7955360Y-77893586D02*
X-8107146Y-77965015D01*
X-8107146Y-77965015D02*
X-8187503Y-78036443D01*
X-7026789Y-77893586D02*
X-6455360Y-77893586D01*
X-6750003Y-77393586D02*
X-6910717Y-78679300D01*
X-6910717Y-78679300D02*
X-6857146Y-78822158D01*
X-6857146Y-78822158D02*
X-6723217Y-78893586D01*
X-6723217Y-78893586D02*
X-6580360Y-78893586D01*
X-6169646Y-77893586D02*
X-5598217Y-77893586D01*
X-5892860Y-77393586D02*
X-6053574Y-78679300D01*
X-6053574Y-78679300D02*
X-6000003Y-78822158D01*
X-6000003Y-78822158D02*
X-5866074Y-78893586D01*
X-5866074Y-78893586D02*
X-5723217Y-78893586D01*
X-5098217Y-77893586D02*
X-5285717Y-79393586D01*
X-5107146Y-77965015D02*
X-4955360Y-77893586D01*
X-4955360Y-77893586D02*
X-4669646Y-77893586D01*
X-4669646Y-77893586D02*
X-4535717Y-77965015D01*
X-4535717Y-77965015D02*
X-4473217Y-78036443D01*
X-4473217Y-78036443D02*
X-4419646Y-78179300D01*
X-4419646Y-78179300D02*
X-4473217Y-78607872D01*
X-4473217Y-78607872D02*
X-4562503Y-78750729D01*
X-4562503Y-78750729D02*
X-4642860Y-78822158D01*
X-4642860Y-78822158D02*
X-4794646Y-78893586D01*
X-4794646Y-78893586D02*
X-5080360Y-78893586D01*
X-5080360Y-78893586D02*
X-5214289Y-78822158D01*
X-3928574Y-78822158D02*
X-3794646Y-78893586D01*
X-3794646Y-78893586D02*
X-3508931Y-78893586D01*
X-3508931Y-78893586D02*
X-3357146Y-78822158D01*
X-3357146Y-78822158D02*
X-3267860Y-78679300D01*
X-3267860Y-78679300D02*
X-3258931Y-78607872D01*
X-3258931Y-78607872D02*
X-3312503Y-78465015D01*
X-3312503Y-78465015D02*
X-3446431Y-78393586D01*
X-3446431Y-78393586D02*
X-3660717Y-78393586D01*
X-3660717Y-78393586D02*
X-3794646Y-78322158D01*
X-3794646Y-78322158D02*
X-3848217Y-78179300D01*
X-3848217Y-78179300D02*
X-3839288Y-78107872D01*
X-3839288Y-78107872D02*
X-3750003Y-77965015D01*
X-3750003Y-77965015D02*
X-3598217Y-77893586D01*
X-3598217Y-77893586D02*
X-3383931Y-77893586D01*
X-3383931Y-77893586D02*
X-3250003Y-77965015D01*
X-2633931Y-78750729D02*
X-2571431Y-78822158D01*
X-2571431Y-78822158D02*
X-2651788Y-78893586D01*
X-2651788Y-78893586D02*
X-2714288Y-78822158D01*
X-2714288Y-78822158D02*
X-2633931Y-78750729D01*
X-2633931Y-78750729D02*
X-2651788Y-78893586D01*
X-2535717Y-77965015D02*
X-2473217Y-78036443D01*
X-2473217Y-78036443D02*
X-2553574Y-78107872D01*
X-2553574Y-78107872D02*
X-2616074Y-78036443D01*
X-2616074Y-78036443D02*
X-2535717Y-77965015D01*
X-2535717Y-77965015D02*
X-2553574Y-78107872D01*
X-669645Y-77322158D02*
X-2196431Y-79250729D01*
X901784Y-77322158D02*
X-625002Y-79250729D01*
X1973213Y-77893586D02*
X1821427Y-79107872D01*
X1821427Y-79107872D02*
X1732142Y-79250729D01*
X1732142Y-79250729D02*
X1651784Y-79322158D01*
X1651784Y-79322158D02*
X1499999Y-79393586D01*
X1499999Y-79393586D02*
X1285713Y-79393586D01*
X1285713Y-79393586D02*
X1151784Y-79322158D01*
X1857142Y-78822158D02*
X1705356Y-78893586D01*
X1705356Y-78893586D02*
X1419642Y-78893586D01*
X1419642Y-78893586D02*
X1285713Y-78822158D01*
X1285713Y-78822158D02*
X1223213Y-78750729D01*
X1223213Y-78750729D02*
X1169642Y-78607872D01*
X1169642Y-78607872D02*
X1223213Y-78179300D01*
X1223213Y-78179300D02*
X1312499Y-78036443D01*
X1312499Y-78036443D02*
X1392856Y-77965015D01*
X1392856Y-77965015D02*
X1544642Y-77893586D01*
X1544642Y-77893586D02*
X1830356Y-77893586D01*
X1830356Y-77893586D02*
X1964284Y-77965015D01*
X2562499Y-78893586D02*
X2687499Y-77893586D01*
X2749999Y-77393586D02*
X2669642Y-77465015D01*
X2669642Y-77465015D02*
X2732142Y-77536443D01*
X2732142Y-77536443D02*
X2812499Y-77465015D01*
X2812499Y-77465015D02*
X2749999Y-77393586D01*
X2749999Y-77393586D02*
X2732142Y-77536443D01*
X3187499Y-77893586D02*
X3758928Y-77893586D01*
X3464285Y-77393586D02*
X3303571Y-78679300D01*
X3303571Y-78679300D02*
X3357142Y-78822158D01*
X3357142Y-78822158D02*
X3491071Y-78893586D01*
X3491071Y-78893586D02*
X3633928Y-78893586D01*
X4133928Y-78893586D02*
X4321428Y-77393586D01*
X4776785Y-78893586D02*
X4874999Y-78107872D01*
X4874999Y-78107872D02*
X4821428Y-77965015D01*
X4821428Y-77965015D02*
X4687499Y-77893586D01*
X4687499Y-77893586D02*
X4473214Y-77893586D01*
X4473214Y-77893586D02*
X4321428Y-77965015D01*
X4321428Y-77965015D02*
X4241071Y-78036443D01*
X6258928Y-77893586D02*
X6133928Y-78893586D01*
X5616071Y-77893586D02*
X5517857Y-78679300D01*
X5517857Y-78679300D02*
X5571428Y-78822158D01*
X5571428Y-78822158D02*
X5705357Y-78893586D01*
X5705357Y-78893586D02*
X5919642Y-78893586D01*
X5919642Y-78893586D02*
X6071428Y-78822158D01*
X6071428Y-78822158D02*
X6151785Y-78750729D01*
X6848214Y-78893586D02*
X7035714Y-77393586D01*
X6964285Y-77965015D02*
X7116071Y-77893586D01*
X7116071Y-77893586D02*
X7401785Y-77893586D01*
X7401785Y-77893586D02*
X7535714Y-77965015D01*
X7535714Y-77965015D02*
X7598214Y-78036443D01*
X7598214Y-78036443D02*
X7651785Y-78179300D01*
X7651785Y-78179300D02*
X7598214Y-78607872D01*
X7598214Y-78607872D02*
X7508928Y-78750729D01*
X7508928Y-78750729D02*
X7428571Y-78822158D01*
X7428571Y-78822158D02*
X7276785Y-78893586D01*
X7276785Y-78893586D02*
X6991071Y-78893586D01*
X6991071Y-78893586D02*
X6857142Y-78822158D01*
X8223214Y-78750729D02*
X8285714Y-78822158D01*
X8285714Y-78822158D02*
X8205357Y-78893586D01*
X8205357Y-78893586D02*
X8142857Y-78822158D01*
X8142857Y-78822158D02*
X8223214Y-78750729D01*
X8223214Y-78750729D02*
X8205357Y-78893586D01*
X9571429Y-78822158D02*
X9419643Y-78893586D01*
X9419643Y-78893586D02*
X9133929Y-78893586D01*
X9133929Y-78893586D02*
X9000000Y-78822158D01*
X9000000Y-78822158D02*
X8937500Y-78750729D01*
X8937500Y-78750729D02*
X8883929Y-78607872D01*
X8883929Y-78607872D02*
X8937500Y-78179300D01*
X8937500Y-78179300D02*
X9026786Y-78036443D01*
X9026786Y-78036443D02*
X9107143Y-77965015D01*
X9107143Y-77965015D02*
X9258929Y-77893586D01*
X9258929Y-77893586D02*
X9544643Y-77893586D01*
X9544643Y-77893586D02*
X9678571Y-77965015D01*
X10419643Y-78893586D02*
X10285714Y-78822158D01*
X10285714Y-78822158D02*
X10223214Y-78750729D01*
X10223214Y-78750729D02*
X10169643Y-78607872D01*
X10169643Y-78607872D02*
X10223214Y-78179300D01*
X10223214Y-78179300D02*
X10312500Y-78036443D01*
X10312500Y-78036443D02*
X10392857Y-77965015D01*
X10392857Y-77965015D02*
X10544643Y-77893586D01*
X10544643Y-77893586D02*
X10758928Y-77893586D01*
X10758928Y-77893586D02*
X10892857Y-77965015D01*
X10892857Y-77965015D02*
X10955357Y-78036443D01*
X10955357Y-78036443D02*
X11008928Y-78179300D01*
X11008928Y-78179300D02*
X10955357Y-78607872D01*
X10955357Y-78607872D02*
X10866071Y-78750729D01*
X10866071Y-78750729D02*
X10785714Y-78822158D01*
X10785714Y-78822158D02*
X10633928Y-78893586D01*
X10633928Y-78893586D02*
X10419643Y-78893586D01*
X11562500Y-78893586D02*
X11687500Y-77893586D01*
X11669643Y-78036443D02*
X11750000Y-77965015D01*
X11750000Y-77965015D02*
X11901786Y-77893586D01*
X11901786Y-77893586D02*
X12116071Y-77893586D01*
X12116071Y-77893586D02*
X12250000Y-77965015D01*
X12250000Y-77965015D02*
X12303571Y-78107872D01*
X12303571Y-78107872D02*
X12205357Y-78893586D01*
X12303571Y-78107872D02*
X12392857Y-77965015D01*
X12392857Y-77965015D02*
X12544643Y-77893586D01*
X12544643Y-77893586D02*
X12758928Y-77893586D01*
X12758928Y-77893586D02*
X12892857Y-77965015D01*
X12892857Y-77965015D02*
X12946428Y-78107872D01*
X12946428Y-78107872D02*
X12848214Y-78893586D01*
X14830357Y-77322158D02*
X13303571Y-79250729D01*
X15133929Y-78893586D02*
X15258929Y-77893586D01*
X15223215Y-78179300D02*
X15312500Y-78036443D01*
X15312500Y-78036443D02*
X15392857Y-77965015D01*
X15392857Y-77965015D02*
X15544643Y-77893586D01*
X15544643Y-77893586D02*
X15687500Y-77893586D01*
X16705357Y-78893586D02*
X16803571Y-78107872D01*
X16803571Y-78107872D02*
X16750000Y-77965015D01*
X16750000Y-77965015D02*
X16616071Y-77893586D01*
X16616071Y-77893586D02*
X16330357Y-77893586D01*
X16330357Y-77893586D02*
X16178571Y-77965015D01*
X16714286Y-78822158D02*
X16562500Y-78893586D01*
X16562500Y-78893586D02*
X16205357Y-78893586D01*
X16205357Y-78893586D02*
X16071428Y-78822158D01*
X16071428Y-78822158D02*
X16017857Y-78679300D01*
X16017857Y-78679300D02*
X16035714Y-78536443D01*
X16035714Y-78536443D02*
X16125000Y-78393586D01*
X16125000Y-78393586D02*
X16276786Y-78322158D01*
X16276786Y-78322158D02*
X16633928Y-78322158D01*
X16633928Y-78322158D02*
X16785714Y-78250729D01*
X17357143Y-78822158D02*
X17491071Y-78893586D01*
X17491071Y-78893586D02*
X17776786Y-78893586D01*
X17776786Y-78893586D02*
X17928571Y-78822158D01*
X17928571Y-78822158D02*
X18017857Y-78679300D01*
X18017857Y-78679300D02*
X18026786Y-78607872D01*
X18026786Y-78607872D02*
X17973214Y-78465015D01*
X17973214Y-78465015D02*
X17839286Y-78393586D01*
X17839286Y-78393586D02*
X17625000Y-78393586D01*
X17625000Y-78393586D02*
X17491071Y-78322158D01*
X17491071Y-78322158D02*
X17437500Y-78179300D01*
X17437500Y-78179300D02*
X17446429Y-78107872D01*
X17446429Y-78107872D02*
X17535714Y-77965015D01*
X17535714Y-77965015D02*
X17687500Y-77893586D01*
X17687500Y-77893586D02*
X17901786Y-77893586D01*
X17901786Y-77893586D02*
X18035714Y-77965015D01*
X18758929Y-77893586D02*
X18571429Y-79393586D01*
X18750000Y-77965015D02*
X18901786Y-77893586D01*
X18901786Y-77893586D02*
X19187500Y-77893586D01*
X19187500Y-77893586D02*
X19321429Y-77965015D01*
X19321429Y-77965015D02*
X19383929Y-78036443D01*
X19383929Y-78036443D02*
X19437500Y-78179300D01*
X19437500Y-78179300D02*
X19383929Y-78607872D01*
X19383929Y-78607872D02*
X19294643Y-78750729D01*
X19294643Y-78750729D02*
X19214286Y-78822158D01*
X19214286Y-78822158D02*
X19062500Y-78893586D01*
X19062500Y-78893586D02*
X18776786Y-78893586D01*
X18776786Y-78893586D02*
X18642857Y-78822158D01*
X19991072Y-78893586D02*
X20178572Y-77393586D01*
X20107143Y-77965015D02*
X20258929Y-77893586D01*
X20258929Y-77893586D02*
X20544643Y-77893586D01*
X20544643Y-77893586D02*
X20678572Y-77965015D01*
X20678572Y-77965015D02*
X20741072Y-78036443D01*
X20741072Y-78036443D02*
X20794643Y-78179300D01*
X20794643Y-78179300D02*
X20741072Y-78607872D01*
X20741072Y-78607872D02*
X20651786Y-78750729D01*
X20651786Y-78750729D02*
X20571429Y-78822158D01*
X20571429Y-78822158D02*
X20419643Y-78893586D01*
X20419643Y-78893586D02*
X20133929Y-78893586D01*
X20133929Y-78893586D02*
X20000000Y-78822158D01*
X21928572Y-78822158D02*
X21776786Y-78893586D01*
X21776786Y-78893586D02*
X21491072Y-78893586D01*
X21491072Y-78893586D02*
X21357143Y-78822158D01*
X21357143Y-78822158D02*
X21303572Y-78679300D01*
X21303572Y-78679300D02*
X21375001Y-78107872D01*
X21375001Y-78107872D02*
X21464286Y-77965015D01*
X21464286Y-77965015D02*
X21616072Y-77893586D01*
X21616072Y-77893586D02*
X21901786Y-77893586D01*
X21901786Y-77893586D02*
X22035715Y-77965015D01*
X22035715Y-77965015D02*
X22089286Y-78107872D01*
X22089286Y-78107872D02*
X22071429Y-78250729D01*
X22071429Y-78250729D02*
X21339286Y-78393586D01*
X22633929Y-78893586D02*
X22758929Y-77893586D01*
X22723215Y-78179300D02*
X22812500Y-78036443D01*
X22812500Y-78036443D02*
X22892857Y-77965015D01*
X22892857Y-77965015D02*
X23044643Y-77893586D01*
X23044643Y-77893586D02*
X23187500Y-77893586D01*
X23562500Y-78893586D02*
X23687500Y-77893586D01*
X23651786Y-78179300D02*
X23741071Y-78036443D01*
X23741071Y-78036443D02*
X23821428Y-77965015D01*
X23821428Y-77965015D02*
X23973214Y-77893586D01*
X23973214Y-77893586D02*
X24116071Y-77893586D01*
X24473214Y-77893586D02*
X24705357Y-78893586D01*
X25187499Y-77893586D02*
X24705357Y-78893586D01*
X24705357Y-78893586D02*
X24517857Y-79250729D01*
X24517857Y-79250729D02*
X24437499Y-79322158D01*
X24437499Y-79322158D02*
X24285714Y-79393586D01*
X25758928Y-77893586D02*
X25571428Y-79393586D01*
X25749999Y-77965015D02*
X25901785Y-77893586D01*
X25901785Y-77893586D02*
X26187499Y-77893586D01*
X26187499Y-77893586D02*
X26321428Y-77965015D01*
X26321428Y-77965015D02*
X26383928Y-78036443D01*
X26383928Y-78036443D02*
X26437499Y-78179300D01*
X26437499Y-78179300D02*
X26383928Y-78607872D01*
X26383928Y-78607872D02*
X26294642Y-78750729D01*
X26294642Y-78750729D02*
X26214285Y-78822158D01*
X26214285Y-78822158D02*
X26062499Y-78893586D01*
X26062499Y-78893586D02*
X25776785Y-78893586D01*
X25776785Y-78893586D02*
X25642856Y-78822158D01*
X26991071Y-78893586D02*
X27116071Y-77893586D01*
X27178571Y-77393586D02*
X27098214Y-77465015D01*
X27098214Y-77465015D02*
X27160714Y-77536443D01*
X27160714Y-77536443D02*
X27241071Y-77465015D01*
X27241071Y-77465015D02*
X27178571Y-77393586D01*
X27178571Y-77393586D02*
X27160714Y-77536443D01*
X28973214Y-77322158D02*
X27446428Y-79250729D01*
X29276786Y-78893586D02*
X29464286Y-77393586D01*
X29919643Y-78893586D02*
X30017857Y-78107872D01*
X30017857Y-78107872D02*
X29964286Y-77965015D01*
X29964286Y-77965015D02*
X29830357Y-77893586D01*
X29830357Y-77893586D02*
X29616072Y-77893586D01*
X29616072Y-77893586D02*
X29464286Y-77965015D01*
X29464286Y-77965015D02*
X29383929Y-78036443D01*
X31276786Y-78893586D02*
X31375000Y-78107872D01*
X31375000Y-78107872D02*
X31321429Y-77965015D01*
X31321429Y-77965015D02*
X31187500Y-77893586D01*
X31187500Y-77893586D02*
X30901786Y-77893586D01*
X30901786Y-77893586D02*
X30750000Y-77965015D01*
X31285715Y-78822158D02*
X31133929Y-78893586D01*
X31133929Y-78893586D02*
X30776786Y-78893586D01*
X30776786Y-78893586D02*
X30642857Y-78822158D01*
X30642857Y-78822158D02*
X30589286Y-78679300D01*
X30589286Y-78679300D02*
X30607143Y-78536443D01*
X30607143Y-78536443D02*
X30696429Y-78393586D01*
X30696429Y-78393586D02*
X30848215Y-78322158D01*
X30848215Y-78322158D02*
X31205357Y-78322158D01*
X31205357Y-78322158D02*
X31357143Y-78250729D01*
X31901786Y-77893586D02*
X32473215Y-77893586D01*
X32178572Y-77393586D02*
X32017858Y-78679300D01*
X32017858Y-78679300D02*
X32071429Y-78822158D01*
X32071429Y-78822158D02*
X32205358Y-78893586D01*
X32205358Y-78893586D02*
X32348215Y-78893586D01*
X32785715Y-78822158D02*
X32919643Y-78893586D01*
X32919643Y-78893586D02*
X33205358Y-78893586D01*
X33205358Y-78893586D02*
X33357143Y-78822158D01*
X33357143Y-78822158D02*
X33446429Y-78679300D01*
X33446429Y-78679300D02*
X33455358Y-78607872D01*
X33455358Y-78607872D02*
X33401786Y-78465015D01*
X33401786Y-78465015D02*
X33267858Y-78393586D01*
X33267858Y-78393586D02*
X33053572Y-78393586D01*
X33053572Y-78393586D02*
X32919643Y-78322158D01*
X32919643Y-78322158D02*
X32866072Y-78179300D01*
X32866072Y-78179300D02*
X32875001Y-78107872D01*
X32875001Y-78107872D02*
X32964286Y-77965015D01*
X32964286Y-77965015D02*
X33116072Y-77893586D01*
X33116072Y-77893586D02*
X33330358Y-77893586D01*
X33330358Y-77893586D02*
X33464286Y-77965015D01*
X35330358Y-77322158D02*
X33803572Y-79250729D01*
X35633930Y-78893586D02*
X35821430Y-77393586D01*
X35750001Y-77965015D02*
X35901787Y-77893586D01*
X35901787Y-77893586D02*
X36187501Y-77893586D01*
X36187501Y-77893586D02*
X36321430Y-77965015D01*
X36321430Y-77965015D02*
X36383930Y-78036443D01*
X36383930Y-78036443D02*
X36437501Y-78179300D01*
X36437501Y-78179300D02*
X36383930Y-78607872D01*
X36383930Y-78607872D02*
X36294644Y-78750729D01*
X36294644Y-78750729D02*
X36214287Y-78822158D01*
X36214287Y-78822158D02*
X36062501Y-78893586D01*
X36062501Y-78893586D02*
X35776787Y-78893586D01*
X35776787Y-78893586D02*
X35642858Y-78822158D01*
X37205359Y-78893586D02*
X37071430Y-78822158D01*
X37071430Y-78822158D02*
X37017859Y-78679300D01*
X37017859Y-78679300D02*
X37178573Y-77393586D01*
X37991073Y-78893586D02*
X37857144Y-78822158D01*
X37857144Y-78822158D02*
X37794644Y-78750729D01*
X37794644Y-78750729D02*
X37741073Y-78607872D01*
X37741073Y-78607872D02*
X37794644Y-78179300D01*
X37794644Y-78179300D02*
X37883930Y-78036443D01*
X37883930Y-78036443D02*
X37964287Y-77965015D01*
X37964287Y-77965015D02*
X38116073Y-77893586D01*
X38116073Y-77893586D02*
X38330358Y-77893586D01*
X38330358Y-77893586D02*
X38464287Y-77965015D01*
X38464287Y-77965015D02*
X38526787Y-78036443D01*
X38526787Y-78036443D02*
X38580358Y-78179300D01*
X38580358Y-78179300D02*
X38526787Y-78607872D01*
X38526787Y-78607872D02*
X38437501Y-78750729D01*
X38437501Y-78750729D02*
X38357144Y-78822158D01*
X38357144Y-78822158D02*
X38205358Y-78893586D01*
X38205358Y-78893586D02*
X37991073Y-78893586D01*
X39133930Y-78893586D02*
X39321430Y-77393586D01*
X39250001Y-77965015D02*
X39401787Y-77893586D01*
X39401787Y-77893586D02*
X39687501Y-77893586D01*
X39687501Y-77893586D02*
X39821430Y-77965015D01*
X39821430Y-77965015D02*
X39883930Y-78036443D01*
X39883930Y-78036443D02*
X39937501Y-78179300D01*
X39937501Y-78179300D02*
X39883930Y-78607872D01*
X39883930Y-78607872D02*
X39794644Y-78750729D01*
X39794644Y-78750729D02*
X39714287Y-78822158D01*
X39714287Y-78822158D02*
X39562501Y-78893586D01*
X39562501Y-78893586D02*
X39276787Y-78893586D01*
X39276787Y-78893586D02*
X39142858Y-78822158D01*
X41758930Y-77322158D02*
X40232144Y-79250729D01*
X42062502Y-78893586D02*
X42187502Y-77893586D01*
X42169645Y-78036443D02*
X42250002Y-77965015D01*
X42250002Y-77965015D02*
X42401788Y-77893586D01*
X42401788Y-77893586D02*
X42616073Y-77893586D01*
X42616073Y-77893586D02*
X42750002Y-77965015D01*
X42750002Y-77965015D02*
X42803573Y-78107872D01*
X42803573Y-78107872D02*
X42705359Y-78893586D01*
X42803573Y-78107872D02*
X42892859Y-77965015D01*
X42892859Y-77965015D02*
X43044645Y-77893586D01*
X43044645Y-77893586D02*
X43258930Y-77893586D01*
X43258930Y-77893586D02*
X43392859Y-77965015D01*
X43392859Y-77965015D02*
X43446430Y-78107872D01*
X43446430Y-78107872D02*
X43348216Y-78893586D01*
X44705359Y-78893586D02*
X44803573Y-78107872D01*
X44803573Y-78107872D02*
X44750002Y-77965015D01*
X44750002Y-77965015D02*
X44616073Y-77893586D01*
X44616073Y-77893586D02*
X44330359Y-77893586D01*
X44330359Y-77893586D02*
X44178573Y-77965015D01*
X44714288Y-78822158D02*
X44562502Y-78893586D01*
X44562502Y-78893586D02*
X44205359Y-78893586D01*
X44205359Y-78893586D02*
X44071430Y-78822158D01*
X44071430Y-78822158D02*
X44017859Y-78679300D01*
X44017859Y-78679300D02*
X44035716Y-78536443D01*
X44035716Y-78536443D02*
X44125002Y-78393586D01*
X44125002Y-78393586D02*
X44276788Y-78322158D01*
X44276788Y-78322158D02*
X44633930Y-78322158D01*
X44633930Y-78322158D02*
X44785716Y-78250729D01*
X45357145Y-78822158D02*
X45491073Y-78893586D01*
X45491073Y-78893586D02*
X45776788Y-78893586D01*
X45776788Y-78893586D02*
X45928573Y-78822158D01*
X45928573Y-78822158D02*
X46017859Y-78679300D01*
X46017859Y-78679300D02*
X46026788Y-78607872D01*
X46026788Y-78607872D02*
X45973216Y-78465015D01*
X45973216Y-78465015D02*
X45839288Y-78393586D01*
X45839288Y-78393586D02*
X45625002Y-78393586D01*
X45625002Y-78393586D02*
X45491073Y-78322158D01*
X45491073Y-78322158D02*
X45437502Y-78179300D01*
X45437502Y-78179300D02*
X45446431Y-78107872D01*
X45446431Y-78107872D02*
X45535716Y-77965015D01*
X45535716Y-77965015D02*
X45687502Y-77893586D01*
X45687502Y-77893586D02*
X45901788Y-77893586D01*
X45901788Y-77893586D02*
X46035716Y-77965015D01*
X46544645Y-77893586D02*
X47116074Y-77893586D01*
X46821431Y-77393586D02*
X46660717Y-78679300D01*
X46660717Y-78679300D02*
X46714288Y-78822158D01*
X46714288Y-78822158D02*
X46848217Y-78893586D01*
X46848217Y-78893586D02*
X46991074Y-78893586D01*
X48071431Y-78822158D02*
X47919645Y-78893586D01*
X47919645Y-78893586D02*
X47633931Y-78893586D01*
X47633931Y-78893586D02*
X47500002Y-78822158D01*
X47500002Y-78822158D02*
X47446431Y-78679300D01*
X47446431Y-78679300D02*
X47517860Y-78107872D01*
X47517860Y-78107872D02*
X47607145Y-77965015D01*
X47607145Y-77965015D02*
X47758931Y-77893586D01*
X47758931Y-77893586D02*
X48044645Y-77893586D01*
X48044645Y-77893586D02*
X48178574Y-77965015D01*
X48178574Y-77965015D02*
X48232145Y-78107872D01*
X48232145Y-78107872D02*
X48214288Y-78250729D01*
X48214288Y-78250729D02*
X47482145Y-78393586D01*
X48776788Y-78893586D02*
X48901788Y-77893586D01*
X48866074Y-78179300D02*
X48955359Y-78036443D01*
X48955359Y-78036443D02*
X49035716Y-77965015D01*
X49035716Y-77965015D02*
X49187502Y-77893586D01*
X49187502Y-77893586D02*
X49330359Y-77893586D01*
X50973216Y-77322158D02*
X49446430Y-79250729D01*
X51276788Y-78893586D02*
X51464288Y-77393586D01*
X51919645Y-78893586D02*
X52017859Y-78107872D01*
X52017859Y-78107872D02*
X51964288Y-77965015D01*
X51964288Y-77965015D02*
X51830359Y-77893586D01*
X51830359Y-77893586D02*
X51616074Y-77893586D01*
X51616074Y-77893586D02*
X51464288Y-77965015D01*
X51464288Y-77965015D02*
X51383931Y-78036443D01*
X53276788Y-78893586D02*
X53375002Y-78107872D01*
X53375002Y-78107872D02*
X53321431Y-77965015D01*
X53321431Y-77965015D02*
X53187502Y-77893586D01*
X53187502Y-77893586D02*
X52901788Y-77893586D01*
X52901788Y-77893586D02*
X52750002Y-77965015D01*
X53285717Y-78822158D02*
X53133931Y-78893586D01*
X53133931Y-78893586D02*
X52776788Y-78893586D01*
X52776788Y-78893586D02*
X52642859Y-78822158D01*
X52642859Y-78822158D02*
X52589288Y-78679300D01*
X52589288Y-78679300D02*
X52607145Y-78536443D01*
X52607145Y-78536443D02*
X52696431Y-78393586D01*
X52696431Y-78393586D02*
X52848217Y-78322158D01*
X52848217Y-78322158D02*
X53205359Y-78322158D01*
X53205359Y-78322158D02*
X53357145Y-78250729D01*
X53901788Y-77893586D02*
X54473217Y-77893586D01*
X54178574Y-77393586D02*
X54017860Y-78679300D01*
X54017860Y-78679300D02*
X54071431Y-78822158D01*
X54071431Y-78822158D02*
X54205360Y-78893586D01*
X54205360Y-78893586D02*
X54348217Y-78893586D01*
X54919645Y-78322158D02*
X56062503Y-78322158D01*
X56705360Y-78893586D02*
X56892860Y-77393586D01*
X56821431Y-77965015D02*
X56973217Y-77893586D01*
X56973217Y-77893586D02*
X57258931Y-77893586D01*
X57258931Y-77893586D02*
X57392860Y-77965015D01*
X57392860Y-77965015D02*
X57455360Y-78036443D01*
X57455360Y-78036443D02*
X57508931Y-78179300D01*
X57508931Y-78179300D02*
X57455360Y-78607872D01*
X57455360Y-78607872D02*
X57366074Y-78750729D01*
X57366074Y-78750729D02*
X57285717Y-78822158D01*
X57285717Y-78822158D02*
X57133931Y-78893586D01*
X57133931Y-78893586D02*
X56848217Y-78893586D01*
X56848217Y-78893586D02*
X56714288Y-78822158D01*
X58276789Y-78893586D02*
X58142860Y-78822158D01*
X58142860Y-78822158D02*
X58080360Y-78750729D01*
X58080360Y-78750729D02*
X58026789Y-78607872D01*
X58026789Y-78607872D02*
X58080360Y-78179300D01*
X58080360Y-78179300D02*
X58169646Y-78036443D01*
X58169646Y-78036443D02*
X58250003Y-77965015D01*
X58250003Y-77965015D02*
X58401789Y-77893586D01*
X58401789Y-77893586D02*
X58616074Y-77893586D01*
X58616074Y-77893586D02*
X58750003Y-77965015D01*
X58750003Y-77965015D02*
X58812503Y-78036443D01*
X58812503Y-78036443D02*
X58866074Y-78179300D01*
X58866074Y-78179300D02*
X58812503Y-78607872D01*
X58812503Y-78607872D02*
X58723217Y-78750729D01*
X58723217Y-78750729D02*
X58642860Y-78822158D01*
X58642860Y-78822158D02*
X58491074Y-78893586D01*
X58491074Y-78893586D02*
X58276789Y-78893586D01*
X60062503Y-78893586D02*
X60160717Y-78107872D01*
X60160717Y-78107872D02*
X60107146Y-77965015D01*
X60107146Y-77965015D02*
X59973217Y-77893586D01*
X59973217Y-77893586D02*
X59687503Y-77893586D01*
X59687503Y-77893586D02*
X59535717Y-77965015D01*
X60071432Y-78822158D02*
X59919646Y-78893586D01*
X59919646Y-78893586D02*
X59562503Y-78893586D01*
X59562503Y-78893586D02*
X59428574Y-78822158D01*
X59428574Y-78822158D02*
X59375003Y-78679300D01*
X59375003Y-78679300D02*
X59392860Y-78536443D01*
X59392860Y-78536443D02*
X59482146Y-78393586D01*
X59482146Y-78393586D02*
X59633932Y-78322158D01*
X59633932Y-78322158D02*
X59991074Y-78322158D01*
X59991074Y-78322158D02*
X60142860Y-78250729D01*
X60776789Y-78893586D02*
X60901789Y-77893586D01*
X60866075Y-78179300D02*
X60955360Y-78036443D01*
X60955360Y-78036443D02*
X61035717Y-77965015D01*
X61035717Y-77965015D02*
X61187503Y-77893586D01*
X61187503Y-77893586D02*
X61330360Y-77893586D01*
X62348217Y-78893586D02*
X62535717Y-77393586D01*
X62357146Y-78822158D02*
X62205360Y-78893586D01*
X62205360Y-78893586D02*
X61919646Y-78893586D01*
X61919646Y-78893586D02*
X61785717Y-78822158D01*
X61785717Y-78822158D02*
X61723217Y-78750729D01*
X61723217Y-78750729D02*
X61669646Y-78607872D01*
X61669646Y-78607872D02*
X61723217Y-78179300D01*
X61723217Y-78179300D02*
X61812503Y-78036443D01*
X61812503Y-78036443D02*
X61892860Y-77965015D01*
X61892860Y-77965015D02*
X62044646Y-77893586D01*
X62044646Y-77893586D02*
X62330360Y-77893586D01*
X62330360Y-77893586D02*
X62464288Y-77965015D01*
X63133931Y-78322158D02*
X64276789Y-78322158D01*
X64919646Y-78893586D02*
X65044646Y-77893586D01*
X65026789Y-78036443D02*
X65107146Y-77965015D01*
X65107146Y-77965015D02*
X65258932Y-77893586D01*
X65258932Y-77893586D02*
X65473217Y-77893586D01*
X65473217Y-77893586D02*
X65607146Y-77965015D01*
X65607146Y-77965015D02*
X65660717Y-78107872D01*
X65660717Y-78107872D02*
X65562503Y-78893586D01*
X65660717Y-78107872D02*
X65750003Y-77965015D01*
X65750003Y-77965015D02*
X65901789Y-77893586D01*
X65901789Y-77893586D02*
X66116074Y-77893586D01*
X66116074Y-77893586D02*
X66250003Y-77965015D01*
X66250003Y-77965015D02*
X66303574Y-78107872D01*
X66303574Y-78107872D02*
X66205360Y-78893586D01*
X67500003Y-78822158D02*
X67348217Y-78893586D01*
X67348217Y-78893586D02*
X67062503Y-78893586D01*
X67062503Y-78893586D02*
X66928574Y-78822158D01*
X66928574Y-78822158D02*
X66875003Y-78679300D01*
X66875003Y-78679300D02*
X66946432Y-78107872D01*
X66946432Y-78107872D02*
X67035717Y-77965015D01*
X67035717Y-77965015D02*
X67187503Y-77893586D01*
X67187503Y-77893586D02*
X67473217Y-77893586D01*
X67473217Y-77893586D02*
X67607146Y-77965015D01*
X67607146Y-77965015D02*
X67660717Y-78107872D01*
X67660717Y-78107872D02*
X67642860Y-78250729D01*
X67642860Y-78250729D02*
X66910717Y-78393586D01*
X68857146Y-78822158D02*
X68705360Y-78893586D01*
X68705360Y-78893586D02*
X68419646Y-78893586D01*
X68419646Y-78893586D02*
X68285717Y-78822158D01*
X68285717Y-78822158D02*
X68223217Y-78750729D01*
X68223217Y-78750729D02*
X68169646Y-78607872D01*
X68169646Y-78607872D02*
X68223217Y-78179300D01*
X68223217Y-78179300D02*
X68312503Y-78036443D01*
X68312503Y-78036443D02*
X68392860Y-77965015D01*
X68392860Y-77965015D02*
X68544646Y-77893586D01*
X68544646Y-77893586D02*
X68830360Y-77893586D01*
X68830360Y-77893586D02*
X68964288Y-77965015D01*
X69491074Y-78893586D02*
X69678574Y-77393586D01*
X70133931Y-78893586D02*
X70232145Y-78107872D01*
X70232145Y-78107872D02*
X70178574Y-77965015D01*
X70178574Y-77965015D02*
X70044645Y-77893586D01*
X70044645Y-77893586D02*
X69830360Y-77893586D01*
X69830360Y-77893586D02*
X69678574Y-77965015D01*
X69678574Y-77965015D02*
X69598217Y-78036443D01*
X71491074Y-78893586D02*
X71589288Y-78107872D01*
X71589288Y-78107872D02*
X71535717Y-77965015D01*
X71535717Y-77965015D02*
X71401788Y-77893586D01*
X71401788Y-77893586D02*
X71116074Y-77893586D01*
X71116074Y-77893586D02*
X70964288Y-77965015D01*
X71500003Y-78822158D02*
X71348217Y-78893586D01*
X71348217Y-78893586D02*
X70991074Y-78893586D01*
X70991074Y-78893586D02*
X70857145Y-78822158D01*
X70857145Y-78822158D02*
X70803574Y-78679300D01*
X70803574Y-78679300D02*
X70821431Y-78536443D01*
X70821431Y-78536443D02*
X70910717Y-78393586D01*
X70910717Y-78393586D02*
X71062503Y-78322158D01*
X71062503Y-78322158D02*
X71419645Y-78322158D01*
X71419645Y-78322158D02*
X71571431Y-78250729D01*
X72330360Y-77893586D02*
X72205360Y-78893586D01*
X72312503Y-78036443D02*
X72392860Y-77965015D01*
X72392860Y-77965015D02*
X72544646Y-77893586D01*
X72544646Y-77893586D02*
X72758931Y-77893586D01*
X72758931Y-77893586D02*
X72892860Y-77965015D01*
X72892860Y-77965015D02*
X72946431Y-78107872D01*
X72946431Y-78107872D02*
X72848217Y-78893586D01*
X73562503Y-78893586D02*
X73687503Y-77893586D01*
X73750003Y-77393586D02*
X73669646Y-77465015D01*
X73669646Y-77465015D02*
X73732146Y-77536443D01*
X73732146Y-77536443D02*
X73812503Y-77465015D01*
X73812503Y-77465015D02*
X73750003Y-77393586D01*
X73750003Y-77393586D02*
X73732146Y-77536443D01*
X74928575Y-78822158D02*
X74776789Y-78893586D01*
X74776789Y-78893586D02*
X74491075Y-78893586D01*
X74491075Y-78893586D02*
X74357146Y-78822158D01*
X74357146Y-78822158D02*
X74294646Y-78750729D01*
X74294646Y-78750729D02*
X74241075Y-78607872D01*
X74241075Y-78607872D02*
X74294646Y-78179300D01*
X74294646Y-78179300D02*
X74383932Y-78036443D01*
X74383932Y-78036443D02*
X74464289Y-77965015D01*
X74464289Y-77965015D02*
X74616075Y-77893586D01*
X74616075Y-77893586D02*
X74901789Y-77893586D01*
X74901789Y-77893586D02*
X75035717Y-77965015D01*
X76205360Y-78893586D02*
X76303574Y-78107872D01*
X76303574Y-78107872D02*
X76250003Y-77965015D01*
X76250003Y-77965015D02*
X76116074Y-77893586D01*
X76116074Y-77893586D02*
X75830360Y-77893586D01*
X75830360Y-77893586D02*
X75678574Y-77965015D01*
X76214289Y-78822158D02*
X76062503Y-78893586D01*
X76062503Y-78893586D02*
X75705360Y-78893586D01*
X75705360Y-78893586D02*
X75571431Y-78822158D01*
X75571431Y-78822158D02*
X75517860Y-78679300D01*
X75517860Y-78679300D02*
X75535717Y-78536443D01*
X75535717Y-78536443D02*
X75625003Y-78393586D01*
X75625003Y-78393586D02*
X75776789Y-78322158D01*
X75776789Y-78322158D02*
X76133931Y-78322158D01*
X76133931Y-78322158D02*
X76285717Y-78250729D01*
X77133932Y-78893586D02*
X77000003Y-78822158D01*
X77000003Y-78822158D02*
X76946432Y-78679300D01*
X76946432Y-78679300D02*
X77107146Y-77393586D01*
X77723217Y-78750729D02*
X77785717Y-78822158D01*
X77785717Y-78822158D02*
X77705360Y-78893586D01*
X77705360Y-78893586D02*
X77642860Y-78822158D01*
X77642860Y-78822158D02*
X77723217Y-78750729D01*
X77723217Y-78750729D02*
X77705360Y-78893586D01*
X78544646Y-77893586D02*
X78357146Y-79393586D01*
X78535717Y-77965015D02*
X78687503Y-77893586D01*
X78687503Y-77893586D02*
X78973217Y-77893586D01*
X78973217Y-77893586D02*
X79107146Y-77965015D01*
X79107146Y-77965015D02*
X79169646Y-78036443D01*
X79169646Y-78036443D02*
X79223217Y-78179300D01*
X79223217Y-78179300D02*
X79169646Y-78607872D01*
X79169646Y-78607872D02*
X79080360Y-78750729D01*
X79080360Y-78750729D02*
X79000003Y-78822158D01*
X79000003Y-78822158D02*
X78848217Y-78893586D01*
X78848217Y-78893586D02*
X78562503Y-78893586D01*
X78562503Y-78893586D02*
X78428574Y-78822158D01*
X80419646Y-78893586D02*
X80607146Y-77393586D01*
X80428575Y-78822158D02*
X80276789Y-78893586D01*
X80276789Y-78893586D02*
X79991075Y-78893586D01*
X79991075Y-78893586D02*
X79857146Y-78822158D01*
X79857146Y-78822158D02*
X79794646Y-78750729D01*
X79794646Y-78750729D02*
X79741075Y-78607872D01*
X79741075Y-78607872D02*
X79794646Y-78179300D01*
X79794646Y-78179300D02*
X79883932Y-78036443D01*
X79883932Y-78036443D02*
X79964289Y-77965015D01*
X79964289Y-77965015D02*
X80116075Y-77893586D01*
X80116075Y-77893586D02*
X80401789Y-77893586D01*
X80401789Y-77893586D02*
X80535717Y-77965015D01*
X81044646Y-77893586D02*
X81616075Y-77893586D01*
X81133932Y-78893586D02*
X81294646Y-77607872D01*
X81294646Y-77607872D02*
X81383932Y-77465015D01*
X81383932Y-77465015D02*
X81535718Y-77393586D01*
X81535718Y-77393586D02*
X81678575Y-77393586D01*
%TO.C,H2*%
X5850000Y-4500000D02*
G75*
G02*
X1150000Y-4500000I-2350000J0D01*
G01*
X1150000Y-4500000D02*
G75*
G02*
X5850000Y-4500000I2350000J0D01*
G01*
%TO.C,H3*%
X63850000Y-4500000D02*
G75*
G02*
X59150000Y-4500000I-2350000J0D01*
G01*
X59150000Y-4500000D02*
G75*
G02*
X63850000Y-4500000I2350000J0D01*
G01*
%TO.C,H1*%
X63850000Y-53500000D02*
G75*
G02*
X59150000Y-53500000I-2350000J0D01*
G01*
X59150000Y-53500000D02*
G75*
G02*
X63850000Y-53500000I2350000J0D01*
G01*
%TO.C,H4*%
X5850000Y-53500000D02*
G75*
G02*
X1150000Y-53500000I-2350000J0D01*
G01*
X1150000Y-53500000D02*
G75*
G02*
X5850000Y-53500000I2350000J0D01*
G01*
%TD*%
M02*
