%TF.GenerationSoftware,KiCad,Pcbnew,8.0.8*%
%TF.CreationDate,2025-01-27T15:06:42+00:00*%
%TF.ProjectId,ElectriPi,456c6563-7472-4695-9069-2e6b69636164,rev?*%
%TF.SameCoordinates,PX514cfd0PY31d4590*%
%TF.FileFunction,Profile,NP*%
%FSLAX46Y46*%
G04 Gerber Fmt 4.6, Leading zero omitted, Abs format (unit mm)*
G04 Created by KiCad (PCBNEW 8.0.8) date 2025-01-27 15:06:42*
%MOMM*%
%LPD*%
G01*
G04 APERTURE LIST*
%TA.AperFunction,Profile*%
%ADD10C,0.100000*%
%TD*%
G04 APERTURE END LIST*
D10*
X0Y-19500000D02*
X0Y-54000000D01*
X62000000Y0D02*
G75*
G02*
X65000000Y-3000000I0J-3000000D01*
G01*
X44000000Y-38000000D02*
X44000000Y-53000000D01*
X3000000Y-57000000D02*
G75*
G02*
X0Y-54000000I0J3000000D01*
G01*
X3000000Y-57000000D02*
X62000000Y-57000000D01*
X65000000Y-54000000D02*
G75*
G02*
X62000000Y-57000000I-3000000J0D01*
G01*
X44000000Y-38000000D02*
G75*
G02*
X46000000Y-38000000I1000000J0D01*
G01*
X46000000Y-38000000D02*
X46000000Y-53000000D01*
X3000000Y0D02*
X62000000Y0D01*
X0Y-3000000D02*
G75*
G02*
X3000000Y0I3000000J0D01*
G01*
X46000000Y-53000000D02*
G75*
G02*
X44000000Y-53000000I-1000000J0D01*
G01*
X0Y-3000000D02*
X0Y-19500000D01*
X65000000Y-3000000D02*
X65000000Y-54000000D01*
%TO.C,U2*%
X5000000Y-18100000D02*
X5000000Y-40100000D01*
X34735921Y-17111650D02*
X38749999Y-17100000D01*
X39053256Y-29100000D02*
X39749999Y-26600000D01*
X39749999Y-26600000D02*
X39749999Y-18100000D01*
X5000000Y-18100000D02*
G75*
G02*
X34735921Y-17111650I15249999J-11000000D01*
G01*
X38749999Y-17100000D02*
G75*
G02*
X39750000Y-18100000I101J-999900D01*
G01*
X39053256Y-29100000D02*
G75*
G02*
X5000000Y-40100000I-18803257J0D01*
G01*
%TD*%
M02*
